<svg version="1.2" xmlns="http://www.w3.org/2000/svg" viewBox="0 0 89 98" width="300" height="330">
	<title>default-monochrome-svg</title>
	<style>
		.s0 { fill: #ed7884 } 
	</style>
	<g id="5dd17e7f-87c4-45a0-930f-351570b185ec">
		<path id="Layer" fill-rule="evenodd" class="s0" d="m39.8 72.5c0.4-0.2 0.3-0.2 0.5-0.3 1.9-1 3 0.6 1.5 1.7q0 0.1 0 0.1 0 0-0.1 0 0 0.1 0 0.1-0.1 0-0.1 0-0.1 0.1-0.1 0.1-0.1 0.1-0.2 0.1 0 0.1-0.1 0.1-0.1 0-0.2 0.1 0 0-0.1 0-0.1 0.1-0.1 0.1-0.1 0-0.2 0 0 0.1-0.1 0.1c-8.2 3.5-16.4 2.9-24.7-2.8q0.1-0.1 0.1-0.2 0-0.1 0-0.2 0.1-0.2 0.1-0.3 0-0.1 0-0.2c8.4 5.4 15.6 5.1 23.8 1.5zm-29-2l-0.1-0.1q0 0 0 0.1-0.1 0-0.1 0 0 0.1 0 0.1 0 0 0 0.1c-0.9 1.5-2.7 3-3.7 2.4-1-0.5-0.7-2.9 0.1-4.4l0.1-0.2q-0.1 0-0.2 0c-1.8-0.4-3.7-1.7-3.5-2.8 0.1-0.8 1.7-1.3 3.2-1.3q0.9 0.8 1.7 1.6 0.3 0.4 0.7 0.7l-0.1 0.1q0 0.3 0.1 0.6 0.1 0.3 0.3 0.6 0.3 0.2 0.6 0.3 0.3 0 0.7-0.1 0.2 0 0.3-0.1 0.2-0.1 0.3-0.3 0.1-0.2 0.2-0.3 0.1-0.2 0.1-0.4 0-0.3-0.1-0.6-0.1-0.3-0.3-0.5-0.3-0.2-0.6-0.2-0.2-0.1-0.5 0-1.1-1-2.3-1.9c0-1.7 0.6-3.6 1.6-3.8 1.1-0.1 2.3 1.9 2.5 3.7v0.2q0.1-0.1 0.3-0.1c1.6-0.8 3.9-0.9 4.4 0.1 0.4 1-1.1 2.8-2.7 3.5l-0.2 0.1q0.1 0.1 0.2 0.2c1.2 1.3 2 3.5 1.2 4.2-0.8 0.8-3-0.2-4.2-1.5zm0.2-3.2q0 0 0 0.1-0.1 0.1-0.1 0.1-0.1 0.1-0.1 0.1-0.1 0.1-0.1 0.1-0.3-0.2-0.6-0.5-0.2-0.2-0.5-0.5-0.2-0.2-0.5-0.5-0.2-0.2-0.4-0.5c-2.8-2.8-5.7-4.4-9.1-5.4 3.3 0.6 6.3 2.3 9.4 5.1q0.2 0.3 0.5 0.5 0.2 0.2 0.5 0.5 0.2 0.2 0.5 0.4 0.3 0.2 0.5 0.5zm15.2 1.3c-2.1 2.7-5.6 1.7-7.3-1.8-1-2-1.5-4.3-2.2-6.5-0.5-1.8-5.1-5.3-6.5-7.3-1.5-2.3-1.1-3.6 0.5-6.5 0.9-1.8 2.3-3.7 4.1-4.4-7.9-4.4-9-11.7-7.8-13 1.3-1.4 4 0.2 5.9-9.3 1.9-10 9.7-5.8 15.4-13.7 3.1-4.3 10.1-5.7 15.6-5.4 5.6-0.3 12.6 1.1 15.7 5.4 5.7 7.9 13.5 3.7 15.4 13.7 1.9 9.5 4.6 7.9 5.9 9.3 1.1 1.3 0.1 8.6-7.8 13 2.8 0.3 5 2.8 5 5.6 0.1 3.7-3.5 7.7-5.7 10.6-2.1 2.6-2.1 5.5-3.5 8.5-1.7 3.5-5.2 4.5-7.3 1.8q0 0.2-0.1 0.3 0 0.2-0.1 0.4 0 0.2 0 0.4-0.1 0.1-0.1 0.3c-0.2 1.5-0.3 2.9-0.5 4.2q-0.7 0-1.5 0.1c0.2-3.1 0.4-6.3 2.3-9.2 0.8-1.2 1.7-2.2 2.5-3.5 1.6-2.3 3-5.4 2.4-12.3-0.7-7.8-2.5-17.4-2.5-17.4 0 0-0.2-0.7-0.5-1.7-1.8-4.4-5.2-6.4-9.2-6.8-2.2-0.2-3.3 0-4.1 0.8-0.8 0.8-1.9 1.5-3 1.5l-3.3-0.1-3.2 0.1c-1.1 0-2.3-0.7-3.1-1.5-0.6-0.7-1.5-0.9-3.1-0.8-4.4 0.1-8.3 2.1-10.1 6.8-0.4 1-0.5 1.7-0.5 1.7 0 0-1.9 9.6-2.6 17.4-0.6 6.9 0.8 10 2.4 12.3 2 3 3.8 4.4 4.3 8.2 0.2 1.6 0.4 3 0.5 4.5q-0.2 0-0.4-0.1-0.2 0-0.4 0-0.2 0-0.3 0-0.2 0-0.4 0c-0.2-2-0.3-3.8-0.8-5.6zm36.1-1.7c1.5 3 4 1.8 5.3-0.7 1.5-3.2 1.4-5.9 3.6-8.8 1.9-2.6 5.5-6.6 5.5-9.7 0-3.4-4.9-6.7-9-1.1q0.2 1.3 0.3 2.6c0.2 1.9 0.2 3.5 0.1 4.9q0.7-0.5 1.5-0.6c1.1-0.2 1.1 1.9-0.1 2-0.6 0.1-1.3 0.8-1.9 2.1q-0.4 1.3-0.8 2.3c0.3 0.3 0.5 0.9 0.5 1.7-0.1 1.3-0.8 2.6-1.5 2.8-0.8 0.2-1.1-0.2-1.2-0.9-0.9 1.2-1.7 2.2-2.3 3.4zm-42.2-20.3c-3.9-5.4-6.2-2.9-8.1 0.6-1.5 2.7-1.6 3.4-0.6 5 1.7 2.3 6 5.3 6.8 7.6 0.6 2.2 1.9 8.5 4.7 8.8 0.6 0.1 1.8 0 2.6-1.7q0-0.2-0.1-0.3-0.1-0.1-0.1-0.2-0.1-0.1-0.2-0.2 0-0.2-0.1-0.3c-0.6-0.8-1.2-1.6-1.9-2.5-0.1 0.7-0.4 1.3-1.1 1-0.8-0.2-1.4-1.5-1.5-2.8-0.1-0.8 0.1-1.4 0.5-1.7q-0.1-0.2-0.1-0.3-0.1-0.2-0.1-0.4-0.1-0.1-0.2-0.3 0-0.2-0.1-0.3 0-0.2-0.1-0.4c-0.7-1.7-1.5-2.6-2.2-2.7-1.1-0.1-1.2-2.1 0-2q0.8 0.1 1.6 0.7c-0.1-1.4-0.1-3.1 0-5q0.2-1.3 0.3-2.6zm40.3 30.9c-0.7 4.5-2.3 8.1-8.7 10.7l-0.4 0.2c-1.4 1.4-4 2.2-7.4 2.2-3.3 0-5.9-0.8-7.3-2.2q-0.1-0.1-0.2-0.1c-5.9-2.3-8.1-5.6-9-10.8q0.8 0.2 1.5 0.2c0.7 3.6 2.1 6.5 6.8 8.7 0.3-0.5 1.1-0.6 1.4 0.1 0.6 1.4 2.7 2.6 6.8 2.6 4.1 0 6.3-1.2 6.9-2.6 0.3-0.7 1.1-0.6 1.3-0.1 4.8-2.3 6.3-5.3 6.8-8.7q0.8-0.1 1.5-0.2zm-2.9-24.4c-0.1 1.2-1.1 2.3-2.3 2.3-1.2 0-2.2-1.1-2.2-2.3 0-1.3 1-2.3 2.3-2.3 1.2 0 2.2 1 2.2 2.3zm-27 0c0-1.3 1-2.3 2.2-2.3 1.3 0 2.3 1 2.3 2.3 0 1.2-1 2.3-2.2 2.3-1.2 0-2.2-1.1-2.3-2.3zm12.4 15.6q0.5 0.2 1 0.2 0.6 0 1.1-0.2 0.3-0.1 0.7-0.3c0.6-0.4 1.3-0.7 2-0.9q0.4-0.2 0.8-0.3c0.6-0.1 0.9 0.3 0.9 0.8q0 0 0 0.1 0 0.1 0 0.1 0 0.1 0 0.1-0.1 0.1-0.1 0.1-0.1 0.1-0.1 0.2-0.1 0.1-0.2 0.1 0 0.1-0.1 0.1-0.1 0.1-0.2 0.1v0.1q-0.1 0-0.2 0.1-0.1 0-0.2 0.1-0.2 0-0.3 0-0.1 0-0.2 0 0 0-0.1 0 0 0-0.1 0 0 0 0 0-0.1 0-0.1 0-0.6 0.2-1.1 0.5-0.1 0.1-0.2 0.1-0.1 0.1-0.3 0.1-0.1 0.1-0.2 0.1-0.1 0.1-0.2 0.1-0.2 0.1-0.4 0.1-0.2 0.1-0.3 0.1-0.2 0.1-0.4 0.1-0.2 0-0.4 0h-0.1q-0.2 0-0.4 0-0.2 0-0.4-0.1-0.2 0-0.3-0.1-0.2 0-0.4-0.1-0.1 0-0.2-0.1-0.1 0-0.2-0.1-0.2 0-0.3-0.1-0.1 0-0.2-0.1-0.5-0.3-1.1-0.5 0 0-0.1 0 0 0-0.1 0 0 0 0 0-0.1 0-0.1 0c-0.4 0-0.7-0.1-0.9-0.2l-0.1-0.1q0 0-0.1-0.1-0.1 0-0.2-0.1 0-0.1-0.1-0.1 0-0.1-0.1-0.2 0 0-0.1-0.1 0 0 0-0.1 0-0.1 0-0.1-0.1-0.1 0-0.1c0-0.5 0.3-0.9 0.9-0.8q0.4 0.1 0.8 0.3c0.7 0.2 1.3 0.5 2 0.9q0.3 0.2 0.7 0.3zm-7 8.4q0.1-0.1 0.2-0.1 0.1-0.1 0.2-0.1 0 0 0.1 0 0.1 0 0.1 0 0.1 0 0.2 0 0 0 0.1 0 0 0 0.1 0 0 0 0 0 0.1 0.1 0.1 0.1l5.5-0.3q0.1 0 0.1 0 0.1 0 0.1 0 0.1 0 0.1 0 0.1 0.1 0.1 0.1c0.2 0 0.6 0.1 1 0.2 0.5-0.1 0.9-0.2 1.1-0.2q0 0 0.1-0.1 0 0 0.1 0 0 0 0.1 0 0 0 0.1 0l5.5 0.3q0 0 0-0.1 0.1 0 0.1 0 0.1 0 0.1 0 0.1 0 0.1 0 0.1 0 0.1 0 0.1 0 0.2 0 0 0 0.1 0 0.1 0 0.1 0.1 0.2 0 0.3 0.1 0.2 0.1 0.6 0.3c0.9 0.5 0.2 1.8-0.7 1.3q-0.1 0-0.1 0-0.1-0.1-0.2-0.1 0-0.1-0.1-0.1-0.1 0-0.2-0.1l-5.8-0.2c-0.5 0.1-1.1 0.2-1.5 0.3h-0.1-0.1c-0.4-0.1-0.9-0.2-1.4-0.3l-5.8 0.2h-0.1q0 0.1-0.1 0.1-0.1 0-0.1 0.1-0.1 0-0.2 0.1-0.1 0-0.1 0c-0.9 0.5-1.6-0.8-0.8-1.3q0.5-0.2 0.7-0.3zm4.8 3.2c0.1 0.1 0.1 0.1 0.4 0.1q0.1 0 0.2 0 0 0 0.1 0 0.1 0 0.2 0 0.1-0.1 0.2-0.1 0.5 0 1-0.1 0.5 0 1.1 0 0.4 0 0.8 0 0.6 0.1 1.1 0.1c0.4 0.1 0.8 0.1 1.2 0.1q0 0 0 0 0 0 0 0 0.1 0 0.1 0 0-0.1 0-0.1c0.7-1 2 0.3 1 1.2h-0.1q-0.2 0.3-0.8 0.4c-0.5 0-1 0-1.5-0.1q-0.5 0-1.1-0.1-0.1 0-0.2 0-0.1 0-0.2 0 0 0-0.1 0-0.1 0-0.2 0-0.1 0-0.2 0-0.1 0-0.3 0-0.1 0-0.2 0-0.1 0-0.3 0-0.5 0.1-0.9 0.1-0.5 0.1-1 0.1c-0.5 0-0.8-0.1-1.1-0.3q0 0-0.1-0.1-0.1 0-0.1-0.1-0.1 0-0.1-0.1-0.1-0.1-0.1-0.1c-0.6-0.9 0.7-1.7 1.2-0.9zm1.2-24.2c0.4 4.3-1.5 7.3-3.3 8.9-0.5 0.4-1.1-0.3-0.6-0.7 1.6-1.4 3.4-4.1 3-8.1 0-0.6 0.8-0.7 0.9-0.1zm-4.1-1.2c-2.1 4.1-7.3 4-9.6 0.4-0.3-0.5 0.4-1 0.7-0.5 2 3.1 6.4 3.2 8.1-0.3 0.3-0.6 1.1-0.2 0.8 0.4zm9.4 1.2c-0.4 4.1 1.4 6.8 3 8.2 0.5 0.4-0.1 1.1-0.6 0.7-1.7-1.6-3.7-4.6-3.3-8.9 0.1-0.6 1-0.5 0.9 0zm3.6-1.6c1.8 3.5 6.1 3.4 8.1 0.3 0.3-0.5 1.1 0 0.7 0.5-2.3 3.6-7.5 3.7-9.6-0.4-0.3-0.6 0.5-1 0.8-0.4zm-11.6-7.5c-5.2-3.4-10.3-5.1-14.3 1.5 0 0.1-0.1 0.1-0.2 0.1-0.1-0.1-0.2-0.2-0.1-0.3 1.6-4.7 4.5-8.3 10.7-6.8 9 2.3 6 6.9 3.9 5.5zm9.6 0c-2.1 1.4-5.1-3.2 3.9-5.5 6.2-1.5 9.1 2.1 10.7 6.8 0.1 0.1 0 0.2-0.1 0.3-0.1 0-0.2 0-0.2-0.1-4-6.6-9.1-4.9-14.3-1.5zm10.8 5.7q0 0-0.1-0.1 0 0 0 0 0-0.1 0-0.1 0-0.1 0-0.1c-0.4-1.4-1.5-2.7-3-3.2-0.8-0.2-1.1-0.2-2-0.1-1.6 0.4-2.8 1.8-3.2 3.3 0 0.1-0.1 0.1-0.1 0.2-0.1 0.4-0.3 0.6-0.7 0.6h-0.4c-1 0-1-1.4-0.1-1.5q0.1-0.1 0.1-0.2c0.8-2.8 2.9-4.2 5.3-4.2 2.4 0 4.5 1.4 5.3 4.2q0 0.1 0 0.2 0.4 1.4-0.4 1.5c-0.5 0-0.6-0.2-0.7-0.5zm-31.2 0c-0.1 0.3-0.2 0.5-0.7 0.5q-0.8-0.1-0.4-1.5 0-0.1 0-0.2c0.8-2.8 2.9-4.2 5.3-4.2 2.4 0 4.5 1.4 5.3 4.2q0 0.1 0.1 0.2c0.9 0.1 0.8 1.5-0.1 1.5h-0.4c-0.4 0-0.6-0.2-0.7-0.6-0.1-0.1-0.1-0.1-0.1-0.2-0.4-1.5-1.6-2.9-3.2-3.3-0.9-0.1-1.2-0.1-2 0.1-1.5 0.5-2.6 1.7-3 3.2q0 0.2-0.1 0.3zm48.4 14.6q0.2-0.3 0.5-0.5 0.3-0.2 0.5-0.4 0.3-0.3 0.5-0.5 0.3-0.2 0.5-0.5c3.1-2.8 6.1-4.5 9.4-5.1-3.4 1-6.3 2.6-9.1 5.4q-1 1.1-1.9 2-0.1 0-0.2-0.1 0 0-0.1-0.1 0 0-0.1-0.1 0-0.1 0-0.1zm0.2 3.3c-1.2 1.2-3.4 2.2-4.2 1.5-0.8-0.8 0-3 1.2-4.3q0.1-0.1 0.2-0.2l-0.2-0.1c-1.6-0.7-3.1-2.5-2.7-3.5 0.5-1 2.8-0.9 4.4-0.1q0.2 0 0.3 0.1v-0.2c0.2-1.8 1.4-3.8 2.5-3.7 1 0.2 1.6 2.1 1.6 3.8q-0.3 0.2-0.6 0.4-0.3 0.3-0.6 0.5-0.2 0.2-0.5 0.5-0.3 0.2-0.6 0.5-0.3-0.1-0.6 0-0.3 0.1-0.5 0.3-0.2 0.2-0.3 0.5-0.1 0.3-0.1 0.7c0.1 0.4 0.5 0.8 0.9 0.9q0.3 0.1 0.6 0.1c0.7-0.2 1.2-0.8 1.1-1.5l-0.1-0.1q0.4-0.3 0.7-0.7 0.8-0.8 1.7-1.6c1.5 0 3.1 0.5 3.2 1.4 0.2 1-1.7 2.3-3.4 2.7q-0.2 0-0.3 0l0.1 0.2c0.8 1.5 1.1 3.9 0.1 4.4-1 0.6-2.8-0.9-3.7-2.4q0-0.1 0-0.1 0 0 0-0.1 0 0-0.1 0 0-0.1 0-0.1zm-29 1.9c8.2 3.6 15.4 4 23.9-1.5q0 0.6 0.1 1c-8.3 5.7-16.5 6.3-24.7 2.7q0 0-0.1 0-0.1 0-0.1-0.1-0.1 0-0.2 0 0-0.1-0.1-0.1-0.1 0-0.1-0.1-0.1 0-0.2 0-0.1-0.1-0.1-0.1-0.1-0.1-0.2-0.1 0 0 0-0.1-0.1 0-0.1 0 0 0 0-0.1-0.1 0-0.1 0c-1.4-1.2-0.4-2.7 1.5-1.7 0.2 0.1 0.2 0.1 0.5 0.2z"/>
	</g>
</svg>