<svg data-v-423bf9ae="" xmlns="http://www.w3.org/2000/svg" viewBox="0 0 353.22899110137047 182" class="iconAboveSlogan"><!----><!----><!----><g data-v-423bf9ae="" id="ced59e03-8e0a-487d-ae35-c13a08e39c50" fill="black" transform="matrix(4.942339234199546,0,0,4.942339234199546,-1.0873094450876124,85.45469333165634)"><path d="M1.97 14.38L1.97 12.59L1.97 12.59Q1.97 11.87 1.89 11.35L1.89 11.35L1.89 11.35Q1.82 10.83 1.70 10.44L1.70 10.44L1.70 10.44Q1.57 10.06 1.42 9.77L1.42 9.77L1.42 9.77Q1.26 9.48 1.09 9.23L1.09 9.23L1.09 9.23Q0.93 8.98 0.77 8.72L0.77 8.72L0.77 8.72Q0.62 8.47 0.49 8.15L0.49 8.15L0.49 8.15Q0.37 7.83 0.29 7.41L0.29 7.41L0.29 7.41Q0.22 6.99 0.22 6.40L0.22 6.40L0.22 4.75L0.22 4.75Q0.22 4.59 0.27 4.38L0.27 4.38L0.27 4.38Q0.32 4.17 0.46 3.99L0.46 3.99L0.46 3.99Q0.61 3.81 0.86 3.68L0.86 3.68L0.86 3.68Q1.12 3.55 1.53 3.55L1.53 3.55L1.53 3.55Q1.94 3.55 2.20 3.68L2.20 3.68L2.20 3.68Q2.45 3.81 2.60 3.99L2.60 3.99L2.60 3.99Q2.74 4.17 2.79 4.38L2.79 4.38L2.79 4.38Q2.84 4.59 2.84 4.75L2.84 4.75L2.84 7.81L1.97 7.81L1.97 4.75L1.97 4.75Q1.97 4.59 1.93 4.48L1.93 4.48L1.93 4.48Q1.89 4.38 1.83 4.32L1.83 4.32L1.83 4.32Q1.77 4.26 1.69 4.23L1.69 4.23L1.69 4.23Q1.61 4.21 1.53 4.21L1.53 4.21L1.53 4.21Q1.45 4.21 1.37 4.23L1.37 4.23L1.37 4.23Q1.29 4.26 1.23 4.32L1.23 4.32L1.23 4.32Q1.17 4.38 1.13 4.48L1.13 4.48L1.13 4.48Q1.09 4.59 1.09 4.75L1.09 4.75L1.09 6.08L1.09 6.08Q1.09 6.86 1.22 7.38L1.22 7.38L1.22 7.38Q1.35 7.90 1.55 8.28L1.55 8.28L1.55 8.28Q1.74 8.67 1.97 8.98L1.97 8.98L1.97 8.98Q2.19 9.30 2.39 9.66L2.39 9.66L2.39 9.66Q2.58 10.03 2.71 10.51L2.71 10.51L2.71 10.51Q2.84 10.99 2.84 11.71L2.84 11.71L2.84 14.38L2.84 14.38Q2.84 14.46 2.82 14.67L2.82 14.67L2.82 14.67Q2.80 14.89 2.68 15.11L2.68 15.11L2.68 15.11Q2.56 15.34 2.29 15.51L2.29 15.51L2.29 15.51Q2.02 15.69 1.53 15.69L1.53 15.69L1.53 15.69Q1.04 15.69 0.77 15.51L0.77 15.51L0.77 15.51Q0.51 15.34 0.38 15.11L0.38 15.11L0.38 15.11Q0.26 14.89 0.24 14.67L0.24 14.67L0.24 14.67Q0.22 14.46 0.22 14.38L0.22 14.38L0.22 10.44L1.09 10.44L1.09 14.38L1.09 14.38Q1.09 14.46 1.10 14.57L1.10 14.57L1.10 14.57Q1.11 14.68 1.15 14.79L1.15 14.79L1.15 14.79Q1.19 14.89 1.28 14.96L1.28 14.96L1.28 14.96Q1.37 15.03 1.53 15.03L1.53 15.03L1.53 15.03Q1.70 15.03 1.78 14.96L1.78 14.96L1.78 14.96Q1.87 14.89 1.91 14.79L1.91 14.79L1.91 14.79Q1.96 14.68 1.96 14.57L1.96 14.57L1.96 14.57Q1.97 14.46 1.97 14.38L1.97 14.38ZM6.13 6.06L6.13 9.56L6.13 9.56Q6.13 9.97 5.97 10.20L5.97 10.20L5.97 10.20Q5.82 10.42 5.58 10.52L5.58 10.52L5.58 10.52Q5.33 10.62 5.02 10.64L5.02 10.64L5.02 10.64Q4.70 10.66 4.38 10.66L4.38 10.66L4.38 15.47L3.50 15.47L3.50 4.97L4.59 4.97L4.59 4.97Q5.17 4.97 5.49 5.08L5.49 5.08L5.49 5.08Q5.80 5.19 5.94 5.35L5.94 5.35L5.94 5.35Q6.08 5.52 6.10 5.71L6.10 5.71L6.10 5.71Q6.13 5.90 6.13 6.06L6.13 6.06ZM5.25 9.34L5.25 6.06L5.25 6.06Q5.25 5.90 5.21 5.81L5.21 5.81L5.21 5.81Q5.16 5.72 5.06 5.68L5.06 5.68L5.06 5.68Q4.96 5.64 4.79 5.63L4.79 5.63L4.79 5.63Q4.62 5.63 4.38 5.63L4.38 5.63L4.38 10.00L4.38 10.00Q4.54 10.00 4.70 9.99L4.70 9.99L4.70 9.99Q4.85 9.98 4.98 9.92L4.98 9.92L4.98 9.92Q5.10 9.86 5.17 9.72L5.17 9.72L5.17 9.72Q5.25 9.59 5.25 9.34L5.25 9.34ZM8.31 4.97L9.19 15.47L8.31 15.47L8.18 13.20L7.57 13.20L7.44 15.47L6.56 15.47L7.44 4.97L8.31 4.97ZM7.62 12.49L8.13 12.49L7.88 7.16L7.62 12.49ZM12.47 4.97L12.47 15.47L11.81 15.47L10.61 9.34L10.61 15.47L9.84 15.47L9.84 4.97L10.50 4.97L11.71 11.31L11.71 4.97L12.47 4.97ZM13.45 4.97L14.33 4.97L14.33 15.47L13.45 15.47L13.45 4.97ZM17.72 5.95L17.72 8.69L16.84 8.69L16.84 5.95L16.84 5.95Q16.84 5.71 16.74 5.61L16.74 5.61L16.74 5.61Q16.64 5.52 16.52 5.52L16.52 5.52L16.52 5.52Q16.39 5.52 16.29 5.61L16.29 5.61L16.29 5.61Q16.19 5.71 16.19 5.95L16.19 5.95L16.19 5.95Q16.19 6.69 16.26 7.30L16.26 7.30L16.26 7.30Q16.32 7.92 16.43 8.44L16.43 8.44L16.43 8.44Q16.54 8.96 16.68 9.38L16.68 9.38L16.68 9.38Q16.82 9.81 16.95 10.17L16.95 10.17L16.95 10.17Q17.06 10.45 17.20 10.81L17.20 10.81L17.20 10.81Q17.33 11.18 17.45 11.70L17.45 11.70L17.45 11.70Q17.56 12.21 17.64 12.89L17.64 12.89L17.64 12.89Q17.72 13.58 17.72 14.49L17.72 14.49L17.72 14.49Q17.72 14.77 17.62 14.98L17.62 14.98L17.62 14.98Q17.51 15.19 17.34 15.32L17.34 15.32L17.34 15.32Q17.17 15.46 16.96 15.52L16.96 15.52L16.96 15.52Q16.74 15.58 16.52 15.58L16.52 15.58L16.52 15.58Q16.29 15.58 16.07 15.52L16.07 15.52L16.07 15.52Q15.86 15.46 15.69 15.32L15.69 15.32L15.69 15.32Q15.52 15.19 15.42 14.98L15.42 14.98L15.42 14.98Q15.31 14.77 15.31 14.49L15.31 14.49L15.31 11.75L16.19 11.75L16.19 14.49L16.19 14.49Q16.19 14.73 16.29 14.83L16.29 14.83L16.29 14.83Q16.39 14.92 16.52 14.92L16.52 14.92L16.52 14.92Q16.64 14.92 16.74 14.83L16.74 14.83L16.74 14.83Q16.84 14.73 16.84 14.49L16.84 14.49L16.84 14.49Q16.84 13.60 16.76 12.94L16.76 12.94L16.76 12.94Q16.67 12.27 16.54 11.76L16.54 11.76L16.54 11.76Q16.41 11.25 16.26 10.87L16.26 10.87L16.26 10.87Q16.11 10.49 15.98 10.17L15.98 10.17L15.98 10.17Q15.85 9.85 15.73 9.45L15.73 9.45L15.73 9.45Q15.61 9.04 15.51 8.53L15.51 8.53L15.51 8.53Q15.42 8.02 15.37 7.38L15.37 7.38L15.37 7.38Q15.31 6.74 15.31 5.95L15.31 5.95L15.31 5.95Q15.31 5.67 15.42 5.46L15.42 5.46L15.42 5.46Q15.52 5.26 15.69 5.12L15.69 5.12L15.69 5.12Q15.86 4.99 16.07 4.93L16.07 4.93L16.07 4.93Q16.29 4.86 16.52 4.86L16.52 4.86L16.52 4.86Q16.74 4.86 16.96 4.93L16.96 4.93L16.96 4.93Q17.17 4.99 17.34 5.12L17.34 5.12L17.34 5.12Q17.51 5.26 17.62 5.46L17.62 5.46L17.62 5.46Q17.72 5.67 17.72 5.95L17.72 5.95ZM20.34 9.69L20.34 4.97L21.22 4.97L21.22 15.47L20.34 15.47L20.34 10.37L19.47 10.37L19.47 15.47L18.59 15.47L18.59 4.97L19.47 4.97L19.47 9.69L20.34 9.69ZM26.34 4.75L26.34 8.47L26.34 8.47Q26.34 8.96 26.17 9.15L26.17 9.15L26.17 9.15Q26.01 9.34 25.68 9.34L25.68 9.34L25.68 9.34Q25.85 9.34 25.97 9.42L25.97 9.42L25.97 9.42Q26.09 9.50 26.17 9.62L26.17 9.62L26.17 9.62Q26.26 9.74 26.30 9.90L26.30 9.90L26.30 9.90Q26.34 10.06 26.34 10.22L26.34 10.22L26.34 15.47L25.46 15.47L25.46 10.00L25.46 10.00Q25.46 9.84 25.39 9.75L25.39 9.75L25.39 9.75Q25.31 9.66 25.19 9.62L25.19 9.62L25.19 9.62Q25.07 9.58 24.91 9.57L24.91 9.57L24.91 9.57Q24.75 9.56 24.59 9.56L24.59 9.56L24.59 15.47L23.71 15.47L23.71 3.66L24.59 3.66L24.59 3.66Q24.92 3.66 25.23 3.67L25.23 3.67L25.23 3.67Q25.55 3.69 25.79 3.79L25.79 3.79L25.79 3.79Q26.04 3.90 26.19 4.12L26.19 4.12L26.19 4.12Q26.34 4.34 26.34 4.75L26.34 4.75ZM25.46 8.69L25.46 4.75L25.46 4.75Q25.46 4.59 25.42 4.50L25.42 4.50L25.42 4.50Q25.38 4.41 25.27 4.37L25.27 4.37L25.27 4.37Q25.17 4.33 25.00 4.32L25.00 4.32L25.00 4.32Q24.83 4.31 24.59 4.31L24.59 4.31L24.59 9.13L24.59 9.13Q24.75 9.13 24.91 9.12L24.91 9.12L24.91 9.12Q25.07 9.11 25.19 9.07L25.19 9.07L25.19 9.07Q25.31 9.03 25.39 8.94L25.39 8.94L25.39 8.94Q25.46 8.85 25.46 8.69L25.46 8.69ZM28.96 4.97L28.96 5.63L28.09 5.63L28.09 9.56L28.96 9.56L28.96 10.22L28.09 10.22L28.09 14.81L28.96 14.81L28.96 15.47L27.21 15.47L27.21 4.97L28.96 4.97ZM32.03 5.95L32.03 8.69L31.15 8.69L31.15 5.95L31.15 5.95Q31.15 5.71 31.05 5.61L31.05 5.61L31.05 5.61Q30.95 5.52 30.82 5.52L30.82 5.52L30.82 5.52Q30.70 5.52 30.60 5.61L30.60 5.61L30.60 5.61Q30.50 5.71 30.50 5.95L30.50 5.95L30.50 5.95Q30.50 6.69 30.56 7.30L30.56 7.30L30.56 7.30Q30.63 7.92 30.74 8.44L30.74 8.44L30.74 8.44Q30.85 8.96 30.99 9.38L30.99 9.38L30.99 9.38Q31.12 9.81 31.26 10.17L31.26 10.17L31.26 10.17Q31.37 10.45 31.50 10.81L31.50 10.81L31.50 10.81Q31.64 11.18 31.75 11.70L31.75 11.70L31.75 11.70Q31.87 12.21 31.95 12.89L31.95 12.89L31.95 12.89Q32.03 13.58 32.03 14.49L32.03 14.49L32.03 14.49Q32.03 14.77 31.92 14.98L31.92 14.98L31.92 14.98Q31.82 15.19 31.65 15.32L31.65 15.32L31.65 15.32Q31.48 15.46 31.26 15.52L31.26 15.52L31.26 15.52Q31.05 15.58 30.82 15.58L30.82 15.58L30.82 15.58Q30.60 15.58 30.38 15.52L30.38 15.52L30.38 15.52Q30.17 15.46 30.00 15.32L30.00 15.32L30.00 15.32Q29.83 15.19 29.72 14.98L29.72 14.98L29.72 14.98Q29.62 14.77 29.62 14.49L29.62 14.49L29.62 11.75L30.50 11.75L30.50 14.49L30.50 14.49Q30.50 14.73 30.60 14.83L30.60 14.83L30.60 14.83Q30.70 14.92 30.82 14.92L30.82 14.92L30.82 14.92Q30.95 14.92 31.05 14.83L31.05 14.83L31.05 14.83Q31.15 14.73 31.15 14.49L31.15 14.49L31.15 14.49Q31.15 13.60 31.07 12.94L31.07 12.94L31.07 12.94Q30.98 12.27 30.85 11.76L30.85 11.76L30.85 11.76Q30.72 11.25 30.57 10.87L30.57 10.87L30.57 10.87Q30.41 10.49 30.28 10.17L30.28 10.17L30.28 10.17Q30.15 9.85 30.03 9.45L30.03 9.45L30.03 9.45Q29.91 9.04 29.82 8.53L29.82 8.53L29.82 8.53Q29.73 8.02 29.67 7.38L29.67 7.38L29.67 7.38Q29.62 6.74 29.62 5.95L29.62 5.95L29.62 5.95Q29.62 5.67 29.72 5.46L29.72 5.46L29.72 5.46Q29.83 5.26 30.00 5.12L30.00 5.12L30.00 5.12Q30.17 4.99 30.38 4.93L30.38 4.93L30.38 4.93Q30.60 4.86 30.82 4.86L30.82 4.86L30.82 4.86Q31.05 4.86 31.26 4.93L31.26 4.93L31.26 4.93Q31.48 4.99 31.65 5.12L31.65 5.12L31.65 5.12Q31.82 5.26 31.92 5.46L31.92 5.46L31.92 5.46Q32.03 5.67 32.03 5.95L32.03 5.95ZM35.53 5.95L35.53 14.49L35.53 14.49Q35.53 14.77 35.42 14.98L35.42 14.98L35.42 14.98Q35.31 15.19 35.14 15.33L35.14 15.33L35.14 15.33Q34.96 15.46 34.73 15.53L34.73 15.53L34.73 15.53Q34.51 15.59 34.27 15.59L34.27 15.59L34.27 15.59Q34.02 15.59 33.77 15.52L33.77 15.52L33.77 15.52Q33.52 15.45 33.33 15.31L33.33 15.31L33.33 15.31Q33.14 15.17 33.02 14.96L33.02 14.96L33.02 14.96Q32.90 14.75 32.90 14.49L32.90 14.49L32.90 5.95L32.90 5.95Q32.90 5.69 33.02 5.49L33.02 5.49L33.02 5.49Q33.14 5.29 33.34 5.15L33.34 5.15L33.34 5.15Q33.53 5.02 33.78 4.95L33.78 4.95L33.78 4.95Q34.02 4.87 34.28 4.87L34.28 4.87L34.28 4.87Q34.51 4.87 34.74 4.94L34.74 4.94L34.74 4.94Q34.97 5.00 35.14 5.14L35.14 5.14L35.14 5.14Q35.31 5.27 35.42 5.48L35.42 5.48L35.42 5.48Q35.53 5.68 35.53 5.95L35.53 5.95ZM34.65 14.49L34.65 5.95L34.65 5.95Q34.65 5.72 34.54 5.62L34.54 5.62L34.54 5.62Q34.43 5.52 34.28 5.52L34.28 5.52L34.28 5.52Q34.19 5.52 34.10 5.55L34.10 5.55L34.10 5.55Q34.01 5.58 33.94 5.64L33.94 5.64L33.94 5.64Q33.87 5.70 33.82 5.78L33.82 5.78L33.82 5.78Q33.78 5.86 33.78 5.95L33.78 5.95L33.78 14.49L33.78 14.49Q33.78 14.58 33.82 14.66L33.82 14.66L33.82 14.66Q33.87 14.75 33.94 14.80L33.94 14.80L33.94 14.80Q34.01 14.85 34.09 14.89L34.09 14.89L34.09 14.89Q34.18 14.92 34.27 14.92L34.27 14.92L34.27 14.92Q34.42 14.92 34.54 14.82L34.54 14.82L34.54 14.82Q34.65 14.72 34.65 14.49L34.65 14.49ZM37.93 14.49L37.93 4.97L38.81 4.97L38.81 14.49L38.81 14.49Q38.81 14.77 38.71 14.98L38.71 14.98L38.71 14.98Q38.60 15.19 38.43 15.32L38.43 15.32L38.43 15.32Q38.26 15.46 38.05 15.52L38.05 15.52L38.05 15.52Q37.83 15.58 37.60 15.58L37.60 15.58L37.60 15.58Q37.38 15.58 37.16 15.52L37.16 15.52L37.16 15.52Q36.95 15.46 36.78 15.32L36.78 15.32L36.78 15.32Q36.61 15.19 36.50 14.98L36.50 14.98L36.50 14.98Q36.40 14.77 36.40 14.49L36.40 14.49L36.40 4.97L37.28 4.97L37.28 14.49L37.28 14.49Q37.28 14.73 37.38 14.83L37.38 14.83L37.38 14.83Q37.48 14.92 37.60 14.92L37.60 14.92L37.60 14.92Q37.73 14.92 37.83 14.83L37.83 14.83L37.83 14.83Q37.93 14.73 37.93 14.49L37.93 14.49ZM42.09 5.84L42.09 9.34L42.09 9.34Q42.09 9.67 41.92 9.85L41.92 9.85L41.92 9.85Q41.76 10.03 41.43 10.10L41.43 10.10L41.43 10.10Q41.76 10.19 41.92 10.37L41.92 10.37L41.92 10.37Q42.09 10.55 42.09 10.88L42.09 10.88L42.09 15.47L41.21 15.47L41.21 10.88L41.21 10.88Q41.21 10.71 41.17 10.62L41.17 10.62L41.17 10.62Q41.13 10.53 41.05 10.49L41.05 10.49L41.05 10.49Q40.97 10.45 40.84 10.45L40.84 10.45L40.84 10.45Q40.72 10.44 40.56 10.44L40.56 10.44L40.56 15.47L39.68 15.47L39.68 4.97L40.67 4.97L40.67 4.97Q41.11 4.97 41.43 5.04L41.43 5.04L41.43 5.04Q41.75 5.11 41.92 5.29L41.92 5.29L41.92 5.29Q42.09 5.48 42.09 5.84L42.09 5.84ZM41.21 9.34L41.21 6.06L41.21 6.06Q41.21 5.90 41.17 5.81L41.17 5.81L41.17 5.81Q41.13 5.72 41.05 5.68L41.05 5.68L41.05 5.68Q40.97 5.64 40.84 5.63L40.84 5.63L40.84 5.63Q40.72 5.63 40.56 5.63L40.56 5.63L40.56 9.78L40.56 9.78Q40.72 9.78 40.84 9.78L40.84 9.78L40.84 9.78Q40.97 9.77 41.05 9.73L41.05 9.73L41.05 9.73Q41.13 9.69 41.17 9.60L41.17 9.60L41.17 9.60Q41.21 9.51 41.21 9.34L41.21 9.34ZM45.59 5.95L45.59 9.34L44.71 9.34L44.71 5.95L44.71 5.95Q44.71 5.72 44.60 5.62L44.60 5.62L44.60 5.62Q44.48 5.52 44.33 5.52L44.33 5.52L44.33 5.52Q44.24 5.52 44.16 5.55L44.16 5.55L44.16 5.55Q44.07 5.58 44.00 5.64L44.00 5.64L44.00 5.64Q43.93 5.70 43.88 5.78L43.88 5.78L43.88 5.78Q43.84 5.86 43.84 5.95L43.84 5.95L43.84 14.49L43.84 14.49Q43.84 14.58 43.88 14.66L43.88 14.66L43.88 14.66Q43.93 14.75 44.00 14.80L44.00 14.80L44.00 14.80Q44.07 14.86 44.16 14.89L44.16 14.89L44.16 14.89Q44.24 14.92 44.33 14.92L44.33 14.92L44.33 14.92Q44.48 14.92 44.60 14.82L44.60 14.82L44.60 14.82Q44.71 14.72 44.71 14.49L44.71 14.49L44.71 10.66L45.59 10.66L45.59 14.49L45.59 14.49Q45.59 14.76 45.47 14.97L45.47 14.97L45.47 14.97Q45.36 15.18 45.17 15.32L45.17 15.32L45.17 15.32Q44.99 15.46 44.75 15.53L44.75 15.53L44.75 15.53Q44.51 15.60 44.26 15.60L44.26 15.60L44.26 15.60Q44.02 15.60 43.78 15.53L43.78 15.53L43.78 15.53Q43.55 15.46 43.37 15.32L43.37 15.32L43.37 15.32Q43.18 15.18 43.07 14.97L43.07 14.97L43.07 14.97Q42.96 14.77 42.96 14.49L42.96 14.49L42.96 5.95L42.96 5.95Q42.96 5.68 43.08 5.47L43.08 5.47L43.08 5.47Q43.19 5.26 43.37 5.12L43.37 5.12L43.37 5.12Q43.56 4.98 43.80 4.91L43.80 4.91L43.80 4.91Q44.04 4.84 44.28 4.84L44.28 4.84L44.28 4.84Q44.53 4.84 44.76 4.91L44.76 4.91L44.76 4.91Q44.99 4.98 45.18 5.12L45.18 5.12L45.18 5.12Q45.36 5.26 45.48 5.47L45.48 5.47L45.48 5.47Q45.59 5.67 45.59 5.95L45.59 5.95ZM48.21 4.97L48.21 5.63L47.34 5.63L47.34 9.56L48.21 9.56L48.21 10.22L47.34 10.22L47.34 14.81L48.21 14.81L48.21 15.47L46.46 15.47L46.46 4.97L48.21 4.97ZM51.28 5.95L51.28 8.69L50.40 8.69L50.40 5.95L50.40 5.95Q50.40 5.71 50.30 5.61L50.30 5.61L50.30 5.61Q50.20 5.52 50.07 5.52L50.07 5.52L50.07 5.52Q49.95 5.52 49.85 5.61L49.85 5.61L49.85 5.61Q49.75 5.71 49.75 5.95L49.75 5.95L49.75 5.95Q49.75 6.69 49.81 7.30L49.81 7.30L49.81 7.30Q49.88 7.92 49.99 8.44L49.99 8.44L49.99 8.44Q50.10 8.96 50.24 9.38L50.24 9.38L50.24 9.38Q50.37 9.81 50.51 10.17L50.51 10.17L50.51 10.17Q50.62 10.45 50.75 10.81L50.75 10.81L50.75 10.81Q50.89 11.18 51.00 11.70L51.00 11.70L51.00 11.70Q51.12 12.21 51.20 12.89L51.20 12.89L51.20 12.89Q51.28 13.58 51.28 14.49L51.28 14.49L51.28 14.49Q51.28 14.77 51.17 14.98L51.17 14.98L51.17 14.98Q51.07 15.19 50.90 15.32L50.90 15.32L50.90 15.32Q50.73 15.46 50.51 15.52L50.51 15.52L50.51 15.52Q50.30 15.58 50.07 15.58L50.07 15.58L50.07 15.58Q49.85 15.58 49.63 15.52L49.63 15.52L49.63 15.52Q49.42 15.46 49.25 15.32L49.25 15.32L49.25 15.32Q49.08 15.19 48.97 14.98L48.97 14.98L48.97 14.98Q48.87 14.77 48.87 14.49L48.87 14.49L48.87 11.75L49.75 11.75L49.75 14.49L49.75 14.49Q49.75 14.73 49.85 14.83L49.85 14.83L49.85 14.83Q49.95 14.92 50.07 14.92L50.07 14.92L50.07 14.92Q50.20 14.92 50.30 14.83L50.30 14.83L50.30 14.83Q50.40 14.73 50.40 14.49L50.40 14.49L50.40 14.49Q50.40 13.60 50.32 12.94L50.32 12.94L50.32 12.94Q50.23 12.27 50.10 11.76L50.10 11.76L50.10 11.76Q49.97 11.25 49.82 10.87L49.82 10.87L49.82 10.87Q49.66 10.49 49.53 10.17L49.53 10.17L49.53 10.17Q49.40 9.85 49.28 9.45L49.28 9.45L49.28 9.45Q49.16 9.04 49.07 8.53L49.07 8.53L49.07 8.53Q48.98 8.02 48.92 7.38L48.92 7.38L48.92 7.38Q48.87 6.74 48.87 5.95L48.87 5.95L48.87 5.95Q48.87 5.67 48.97 5.46L48.97 5.46L48.97 5.46Q49.08 5.26 49.25 5.12L49.25 5.12L49.25 5.12Q49.42 4.99 49.63 4.93L49.63 4.93L49.63 4.93Q49.85 4.86 50.07 4.86L50.07 4.86L50.07 4.86Q50.30 4.86 50.51 4.93L50.51 4.93L50.51 4.93Q50.73 4.99 50.90 5.12L50.90 5.12L50.90 5.12Q51.07 5.26 51.17 5.46L51.17 5.46L51.17 5.46Q51.28 5.67 51.28 5.95L51.28 5.95ZM55.74 4.97L55.74 5.63L54.65 5.63L54.65 9.56L55.52 9.56L55.52 10.22L54.65 10.22L54.65 15.47L53.77 15.47L53.77 4.97L55.74 4.97ZM58.91 5.95L58.91 14.49L58.91 14.49Q58.91 14.77 58.81 14.98L58.81 14.98L58.81 14.98Q58.70 15.19 58.52 15.33L58.52 15.33L58.52 15.33Q58.34 15.46 58.12 15.53L58.12 15.53L58.12 15.53Q57.89 15.59 57.65 15.59L57.65 15.59L57.65 15.59Q57.40 15.59 57.16 15.52L57.16 15.52L57.16 15.52Q56.91 15.45 56.72 15.31L56.72 15.31L56.72 15.31Q56.53 15.17 56.41 14.96L56.41 14.96L56.41 14.96Q56.29 14.75 56.29 14.49L56.29 14.49L56.29 5.95L56.29 5.95Q56.29 5.69 56.41 5.49L56.41 5.49L56.41 5.49Q56.53 5.29 56.72 5.15L56.72 5.15L56.72 5.15Q56.92 5.02 57.16 4.95L57.16 4.95L57.16 4.95Q57.41 4.87 57.66 4.87L57.66 4.87L57.66 4.87Q57.90 4.87 58.13 4.94L58.13 4.94L58.13 4.94Q58.35 5.00 58.53 5.14L58.53 5.14L58.53 5.14Q58.70 5.27 58.81 5.48L58.81 5.48L58.81 5.48Q58.91 5.68 58.91 5.95L58.91 5.95ZM58.04 14.49L58.04 5.95L58.04 5.95Q58.04 5.72 57.92 5.62L57.92 5.62L57.92 5.62Q57.81 5.52 57.66 5.52L57.66 5.52L57.66 5.52Q57.57 5.52 57.48 5.55L57.48 5.55L57.48 5.55Q57.39 5.58 57.32 5.64L57.32 5.64L57.32 5.64Q57.25 5.70 57.21 5.78L57.21 5.78L57.21 5.78Q57.16 5.86 57.16 5.95L57.16 5.95L57.16 14.49L57.16 14.49Q57.16 14.58 57.21 14.66L57.21 14.66L57.21 14.66Q57.25 14.75 57.32 14.80L57.32 14.80L57.32 14.80Q57.39 14.85 57.48 14.89L57.48 14.89L57.48 14.89Q57.57 14.92 57.65 14.92L57.65 14.92L57.65 14.92Q57.80 14.92 57.92 14.82L57.92 14.82L57.92 14.82Q58.04 14.72 58.04 14.49L58.04 14.49ZM62.19 5.84L62.19 9.34L62.19 9.34Q62.19 9.67 62.03 9.85L62.03 9.85L62.03 9.85Q61.87 10.03 61.54 10.10L61.54 10.10L61.54 10.10Q61.87 10.19 62.03 10.37L62.03 10.37L62.03 10.37Q62.19 10.55 62.19 10.88L62.19 10.88L62.19 15.47L61.32 15.47L61.32 10.88L61.32 10.88Q61.32 10.71 61.28 10.62L61.28 10.62L61.28 10.62Q61.24 10.53 61.15 10.49L61.15 10.49L61.15 10.49Q61.07 10.45 60.95 10.45L60.95 10.45L60.95 10.45Q60.83 10.44 60.66 10.44L60.66 10.44L60.66 15.47L59.79 15.47L59.79 4.97L60.77 4.97L60.77 4.97Q61.22 4.97 61.53 5.04L61.53 5.04L61.53 5.04Q61.85 5.11 62.02 5.29L62.02 5.29L62.02 5.29Q62.19 5.48 62.19 5.84L62.19 5.84ZM61.32 9.34L61.32 6.06L61.32 6.06Q61.32 5.90 61.28 5.81L61.28 5.81L61.28 5.81Q61.24 5.72 61.15 5.68L61.15 5.68L61.15 5.68Q61.07 5.64 60.95 5.63L60.95 5.63L60.95 5.63Q60.83 5.63 60.66 5.63L60.66 5.63L60.66 9.78L60.66 9.78Q60.83 9.78 60.95 9.78L60.95 9.78L60.95 9.78Q61.07 9.77 61.15 9.73L61.15 9.73L61.15 9.73Q61.24 9.69 61.28 9.60L61.28 9.60L61.28 9.60Q61.32 9.51 61.32 9.34L61.32 9.34ZM66.44 3.66L67.09 15.47L66.22 15.47L66.11 12.63L65.46 12.63L65.34 15.47L64.47 15.47L65.13 3.66L66.44 3.66ZM66.11 11.97L66.00 9.34L65.78 4.09L65.56 9.34L65.46 11.97L66.11 11.97ZM67.75 4.97L68.63 4.97L68.63 14.81L69.50 14.81L69.50 15.47L67.75 15.47L67.75 4.97ZM69.94 4.97L70.81 4.97L70.81 14.81L71.69 14.81L71.69 15.47L69.94 15.47L69.94 4.97Z"></path></g><!----><g data-v-423bf9ae="" id="f15334c3-b329-47c0-991f-0154e44c58d7" transform="matrix(1.1628742368578673,0,0,1.1628742368578673,118.80680258786353,-12.895785187601746)" stroke="none" fill="black"><path d="M46.452 73.416c.312-.143.255-.115.419-.201 1.625-.857 2.54.439 1.315 1.467a1.198 1.198 0 0 1-.196.156 2.92 2.92 0 0 1-.508.288 8.89 8.89 0 0 1-.437.196c-7.057 3.027-14.086 2.508-21.233-2.396a2.03 2.03 0 0 0 .139-.787c7.276 4.668 13.445 4.366 20.501 1.277zM21.52 71.757l-.12-.137a3.517 3.517 0 0 1-.118.228c-.734 1.326-2.315 2.58-3.15 2.117-.834-.463-.61-2.469.128-3.795l.088-.156c-.083-.013-.167-.023-.251-.043-1.488-.287-3.169-1.404-2.987-2.342.147-.758 1.466-1.168 2.752-1.145.514.422 1.017.887 1.512 1.396.18.188.359.37.54.553l-.017.071a1.107 1.107 0 0 0 1.399 1.271 1.112 1.112 0 0 0 .79-1.002 1.105 1.105 0 0 0-1.312-1.142c-.642-.563-1.268-1.112-1.905-1.633-.069-1.438.46-3.095 1.332-3.203.949-.116 1.946 1.638 2.132 3.144l.017.182c.074-.04.149-.078.229-.115 1.375-.639 3.39-.727 3.794.141.404.865-.958 2.354-2.333 2.996l-.165.072c.061.061.119.118.18.182 1.033 1.109 1.737 3.002 1.039 3.651-.702.653-2.538-.182-3.574-1.291zm.155-2.827a.717.717 0 0 1-.309.402 55.42 55.42 0 0 1-1.722-1.713c-2.327-2.409-4.851-3.791-7.74-4.641 2.82.506 5.36 1.907 8.012 4.377a60.688 60.688 0 0 0 1.759 1.575zm44.117-.346c1.263 2.58 3.455 1.615 4.503-.58 1.295-2.713 1.23-5.091 3.124-7.596 1.646-2.174 4.704-5.6 4.702-8.311 0-2.875-4.178-5.779-7.661-.906.081.735.153 1.469.214 2.186.141 1.617.156 3.018.08 4.246.393-.293.816-.48 1.27-.535 1.018-.123.965 1.622-.053 1.744-.474.059-1.115.691-1.66 1.812-.185.742-.412 1.4-.668 1.998.283.243.444.77.402 1.438-.068 1.094-.641 2.201-1.291 2.399-.624.193-.888-.207-.982-.744-.749 1.007-1.447 1.845-1.98 2.849zm-31.054 1.498c-1.826 2.35-4.826 1.454-6.248-1.521-.849-1.783-1.339-3.768-1.906-5.652-.456-1.514-4.366-4.544-5.62-6.235-1.272-1.987-.91-3.144.407-5.569.844-1.557 2.052-3.235 3.589-3.772-6.816-3.83-7.743-10.106-6.765-11.186 1.132-1.246 3.476.134 5.068-8.031 1.681-8.622 8.384-4.947 13.245-11.75 2.672-3.743 8.68-4.917 13.466-4.702 4.819-.214 10.825.959 13.499 4.702 4.858 6.803 11.564 3.128 13.243 11.75 1.593 8.165 3.938 6.785 5.066 8.031.979 1.078.056 7.339-6.735 11.171 2.438.259 4.361 2.403 4.362 4.786.002 3.174-3.091 6.612-4.964 9.088-1.746 2.31-1.747 4.771-2.989 7.373-1.427 2.986-4.442 3.879-6.267 1.496a8.656 8.656 0 0 0-.271 1.238c-.187 1.242-.299 2.438-.414 3.575-.435.042-.868.063-1.305.067.196-2.651.368-5.381 1.983-7.86.668-1.024 1.457-1.915 2.182-2.985 1.355-1.992 2.529-4.684 2.023-10.607-.572-6.725-2.177-14.979-2.177-14.979s-.104-.596-.438-1.44c-1.494-3.767-4.432-5.497-7.914-5.842-1.869-.152-2.782-.026-3.448.631-.703.759-1.703 1.295-2.603 1.295l-2.821-.011-2.818.011c-.9 0-1.899-.536-2.604-1.295-.564-.56-1.31-.739-2.671-.688-3.842.152-7.117 1.849-8.722 5.898-.336.844-.438 1.44-.438 1.44s-1.604 8.256-2.179 14.98c-.506 5.924.67 8.613 2.023 10.606 1.714 2.521 3.238 3.738 3.722 7.015.199 1.34.305 2.619.42 3.832a15.446 15.446 0 0 1-1.325-.067c-.13-1.668-.201-3.259-.656-4.793zm-5.251-18.891c-3.338-4.692-5.333-2.521-6.985.523-1.251 2.307-1.343 2.869-.478 4.225 1.481 1.988 5.179 4.559 5.793 6.597.569 1.892 1.694 7.247 4.056 7.551.564.071 1.536.019 2.28-1.495a9.152 9.152 0 0 0-.469-.812c-.486-.747-1.037-1.421-1.583-2.146-.078.587-.333 1.056-1 .851-.647-.199-1.222-1.308-1.291-2.4-.042-.698.136-1.236.44-1.467-.025-.102-.052-.201-.079-.301a12.673 12.673 0 0 1-.398-1.164c-.589-1.438-1.347-2.254-1.888-2.318-1.016-.122-1.068-1.867-.052-1.744.49.061.946.273 1.365.608-.081-1.243-.066-2.667.075-4.319.062-.72.136-1.452.214-2.189zm34.674 26.577c-.603 3.838-1.987 6.932-7.478 9.168l-.353.138c-1.228 1.278-3.438 1.96-6.343 1.96-2.898 0-5.109-.682-6.338-1.956-.036-.011-.074-.021-.112-.034-5.073-1.977-7.014-4.859-7.793-9.275.446.066.894.118 1.343.159.546 3.062 1.786 5.58 5.831 7.455.237-.393.907-.499 1.156.062.554 1.25 2.382 2.303 5.913 2.303 3.534 0 5.362-1.053 5.917-2.303.244-.553.904-.455 1.146-.073 4.11-1.929 5.346-4.563 5.833-7.448.429-.043.853-.092 1.278-.156zm-2.538-21.041c-.02 1.092-.896 1.975-1.954 1.975s-1.905-.883-1.892-1.975c.015-1.096.889-1.983 1.955-1.983 1.066-.002 1.913.887 1.891 1.983zm-23.155 0c-.022-1.096.825-1.983 1.89-1.983 1.066 0 1.94.889 1.956 1.983.013 1.092-.834 1.975-1.893 1.975-1.057-.002-1.933-.884-1.953-1.975zm10.647 13.449c.287.108.573.178.874.194.303-.017.588-.086.877-.194.22-.085.429-.187.643-.295.55-.279 1.087-.566 1.675-.762.234-.077.485-.146.76-.201.466-.092.75.254.771.607a.588.588 0 0 1-.122.424 1.882 1.882 0 0 1-.469.416l-.071.045a1.475 1.475 0 0 1-.729.205.677.677 0 0 1-.283-.057c-.319.145-.632.309-.948.473a8.287 8.287 0 0 1-.775.351 4.028 4.028 0 0 1-1.271.276h-.104a4.126 4.126 0 0 1-1.272-.276 7.81 7.81 0 0 1-.773-.351c-.317-.164-.63-.328-.948-.473a.695.695 0 0 1-.286.057c-.298 0-.545-.102-.729-.205l-.07-.045a1.909 1.909 0 0 1-.471-.416.582.582 0 0 1-.119-.424c.019-.354.303-.699.77-.607.272.055.524.124.76.201.588.195 1.124.482 1.672.762.208.108.419.21.638.295zm-6.041 7.2c.081-.04.149-.069.202-.091a.97.97 0 0 1 .473-.082.7.7 0 0 1 .293.086l4.72-.246a.718.718 0 0 1 .346.07c.127.041.482.143.883.156.402-.015.756-.115.882-.156a.74.74 0 0 1 .35-.07l4.721.246a.678.678 0 0 1 .291-.086.903.903 0 0 1 .439.07c.088.033.154.062.235.103.142.067.323.161.562.294.748.422.116 1.543-.632 1.123a7.536 7.536 0 0 0-.481-.254l-.057-.025-5-.178c-.371.129-.888.199-1.229.221l-.082.002-.078-.002c-.344-.021-.858-.092-1.229-.221l-5 .178-.057.025a7.566 7.566 0 0 0-.48.254c-.75.42-1.382-.701-.633-1.123.239-.133.42-.227.556-.291l.005-.003zm4.158 2.798c.022.01.097.035.283.039a6.48 6.48 0 0 0 .673-.043c.257-.023.536-.055.841-.082.288-.025.611-.044.942-.052.218.006.439.016.644.028.367.024.701.062 1.003.094.317.031.679.09.995.04a.723.723 0 0 0 .096-.022c.584-.854 1.688.234.857.967l-.049.037c-.152.137-.383.241-.707.293-.432.064-.89.012-1.316-.033-.294-.03-.61-.065-.958-.088a8.295 8.295 0 0 0-.556-.023 10.33 10.33 0 0 0-.838.046c-.303.022-.576.056-.825.08-.308.03-.579.051-.815.047-.445-.008-.752-.101-.95-.231a1.086 1.086 0 0 1-.389-.377c-.472-.718.596-1.424 1.069-.72zm1-20.881c.387 3.752-1.307 6.305-2.849 7.688-.375.338-.884-.228-.506-.563 1.404-1.26 2.959-3.589 2.602-7.044-.05-.505.704-.582.753-.081zm-3.491-1.02c-1.824 3.563-6.279 3.471-8.294.338-.273-.422.362-.834.638-.408 1.73 2.688 5.45 2.717 6.982-.273.231-.451.906-.106.674.343zm8.066 1.099c-.354 3.455 1.197 5.784 2.604 7.044.376.337-.129.9-.506.562-1.543-1.383-3.237-3.935-2.852-7.687.052-.499.806-.422.754.081zm3.072-1.442c1.534 2.99 5.253 2.961 6.984.273.275-.426.91-.014.638.408-2.017 3.133-6.472 3.227-8.296-.338-.228-.449.443-.794.674-.343zm-9.991-6.414c-4.443-2.941-8.835-4.418-12.229 1.256-.028.066-.111.104-.197.078-.092-.023-.148-.104-.129-.188 1.428-4.077 3.93-7.142 9.231-5.855 7.778 1.906 5.181 5.937 3.324 4.709zm8.313 0c-1.858 1.229-4.451-2.803 3.324-4.708 5.299-1.287 7.805 1.778 9.229 5.855.022.082-.036.163-.126.188-.087.024-.173-.012-.197-.078-3.394-5.676-7.785-4.199-12.23-1.257zm9.24 4.899a1.259 1.259 0 0 1-.104-.272c-.332-1.242-1.258-2.344-2.522-2.731-.725-.201-.984-.201-1.729-.063-1.375.312-2.38 1.469-2.761 2.797-.021.07-.044.106-.068.188-.132.334-.257.479-.606.479h-.366c-.812 0-.827-1.194-.048-1.237.012-.062.025-.13.043-.195.693-2.42 2.508-3.6 4.568-3.6 2.053 0 3.905 1.17 4.551 3.6.016.065.029.134.039.195.189.774.056 1.173-.412 1.237-.385.054-.506-.178-.585-.398zm-26.793 0c-.075.22-.2.452-.584.397-.468-.065-.601-.463-.411-1.238.01-.062.022-.129.038-.195.646-2.43 2.501-3.6 4.55-3.6 2.062 0 3.876 1.18 4.568 3.6.019.066.033.133.043.195.781.043.766 1.238-.046 1.238h-.368c-.351 0-.474-.146-.605-.48-.026-.082-.048-.118-.066-.189-.383-1.328-1.389-2.483-2.764-2.795-.742-.139-1.005-.139-1.73.062-1.261.389-2.188 1.49-2.521 2.732-.027.108-.063.2-.104.273zM78.244 68.93a58.379 58.379 0 0 0 1.757-1.572c2.653-2.471 5.192-3.871 8.015-4.379-2.889.851-5.414 2.231-7.742 4.642-.576.6-1.146 1.172-1.719 1.713a.739.739 0 0 1-.311-.404zm.154 2.827c-1.035 1.109-2.871 1.944-3.57 1.291-.699-.649.006-2.542 1.041-3.651.059-.062.117-.121.178-.182l-.165-.072c-1.375-.643-2.735-2.131-2.331-2.996.403-.866 2.418-.778 3.793-.141.077.037.154.075.229.115l.018-.182c.185-1.506 1.181-3.26 2.128-3.144.875.108 1.403 1.767 1.336 3.203a62.641 62.641 0 0 0-1.906 1.633 1.106 1.106 0 0 0-1.293 1.298c.082.413.391.733.771.846.167.049.347.062.524.024.601-.114.99-.692.875-1.295l-.018-.071c.18-.183.361-.365.54-.553.496-.511.999-.976 1.511-1.396 1.287-.023 2.606.387 2.754 1.145.185.938-1.498 2.055-2.988 2.342-.084.02-.166.03-.251.043l.093.156c.734 1.326.96 3.332.124 3.795-.834.463-2.416-.791-3.151-2.117a3.748 3.748 0 0 1-.117-.228l-.125.137zm-24.93 1.659c7.056 3.089 13.226 3.391 20.501-1.277-.003.293.045.56.139.787-7.148 4.904-14.178 5.424-21.235 2.396a10.033 10.033 0 0 1-.438-.196 3.043 3.043 0 0 1-.506-.288 1.199 1.199 0 0 1-.197-.156c-1.225-1.026-.31-2.324 1.316-1.467.164.086.104.058.42.201z"></path></g><!----><g data-v-423bf9ae="" id="598df6d4-c558-4e88-addc-b8c79c99b839" fill="black" transform="matrix(0.5376938363537569,0,0,0.5376938363537569,44.631589571093116,202.5856900607234)"><path d="M7.71 2.21L0.20 2.21L0.20 3.22L3.43 3.22L3.43 11.48L4.48 11.48L4.48 3.22L7.71 3.22ZM18.49 4.37C16.76 4.37 16.06 5.73 15.92 6.20L15.92 4.48L14.87 4.48L14.87 11.48L15.92 11.48L15.92 8.40C15.92 6.86 16.87 5.42 18.44 5.42L18.56 5.42L18.56 4.37ZM26.70 11.48L27.75 11.48L27.75 4.48L26.70 4.48ZM26.66 1.93L26.66 3.30L27.79 3.30L27.79 1.93ZM39.69 10.64C38.28 10.64 37.37 9.65 37.21 8.40L43.08 8.40L43.08 7.98C43.08 5.98 41.75 4.37 39.61 4.37C37.46 4.37 36.13 5.98 36.13 7.98C36.13 9.98 37.53 11.59 39.68 11.59C41.34 11.59 42.38 10.72 42.87 9.46L41.72 9.46C41.34 10.16 40.67 10.64 39.69 10.64ZM39.61 5.32C40.95 5.32 41.79 6.23 41.99 7.42L37.23 7.42C37.42 6.23 38.26 5.32 39.61 5.32ZM54.32 4.37C52.28 4.37 50.93 5.98 50.93 7.98C50.93 9.98 52.28 11.59 54.32 11.59C55.48 11.59 56.31 11.12 56.83 10.36L56.83 11.48L57.88 11.48L57.88 1.68L56.83 1.68L56.83 5.61C56.31 4.86 55.48 4.37 54.32 4.37ZM54.46 10.64C52.91 10.64 51.98 9.42 51.98 7.98C51.98 6.54 52.91 5.32 54.46 5.32C56.01 5.32 56.88 6.54 56.88 7.98C56.88 9.42 56.01 10.64 54.46 10.64ZM79.63 4.37C77.59 4.37 76.24 5.98 76.24 7.98C76.24 9.98 77.59 11.59 79.63 11.59C80.79 11.59 81.62 11.12 82.14 10.36L82.14 11.48L83.19 11.48L83.19 4.48L82.14 4.48L82.14 5.61C81.62 4.86 80.79 4.37 79.63 4.37ZM79.77 10.64C78.22 10.64 77.29 9.42 77.29 7.98C77.29 6.54 78.22 5.32 79.77 5.32C81.33 5.32 82.19 6.54 82.19 7.98C82.19 9.42 81.33 10.64 79.77 10.64ZM92.01 4.48L92.01 11.48L93.06 11.48L93.06 7.45C93.06 6.19 94.01 5.32 95.17 5.32C96.32 5.32 97.13 6.16 97.13 7.43L97.13 11.48L98.18 11.48L98.18 7.41C98.18 5.42 96.82 4.37 95.38 4.37C94.25 4.37 93.56 4.90 93.06 5.57L93.06 4.48ZM109.89 4.37C107.84 4.37 106.50 5.98 106.50 7.98C106.50 9.98 107.84 11.59 109.89 11.59C111.05 11.59 111.87 11.12 112.39 10.36L112.39 11.48L113.44 11.48L113.44 1.68L112.39 1.68L112.39 5.61C111.87 4.86 111.05 4.37 109.89 4.37ZM110.03 10.64C108.47 10.64 107.55 9.42 107.55 7.98C107.55 6.54 108.47 5.32 110.03 5.32C111.58 5.32 112.45 6.54 112.45 7.98C112.45 9.42 111.58 10.64 110.03 10.64ZM134.05 11.48L134.05 5.40L135.66 5.40L135.66 4.48L134.05 4.48L134.05 1.97L133 1.97L133 4.48L131.57 4.48L131.57 5.40L133 5.40L133 11.48ZM147.43 4.37C145.70 4.37 145.00 5.73 144.86 6.20L144.86 4.48L143.81 4.48L143.81 11.48L144.86 11.48L144.86 8.40C144.86 6.86 145.81 5.42 147.38 5.42L147.50 5.42L147.50 4.37ZM161.74 11.48L161.74 4.48L160.69 4.48L160.69 8.51C160.69 9.77 159.74 10.64 158.58 10.64C157.43 10.64 156.62 9.80 156.62 8.53L156.62 4.48L155.57 4.48L155.57 8.55C155.57 10.54 156.93 11.59 158.37 11.59C159.50 11.59 160.19 11.06 160.69 10.39L160.69 11.48ZM173.68 10.64C172.27 10.64 171.36 9.65 171.21 8.40L177.07 8.40L177.07 7.98C177.07 5.98 175.74 4.37 173.60 4.37C171.46 4.37 170.13 5.98 170.13 7.98C170.13 9.98 171.53 11.59 173.67 11.59C175.34 11.59 176.37 10.72 176.86 9.46L175.71 9.46C175.34 10.16 174.66 10.64 173.68 10.64ZM173.60 5.32C174.94 5.32 175.78 6.23 175.98 7.42L171.22 7.42C171.42 6.23 172.26 5.32 173.60 5.32ZM198.49 10.64C196.94 10.64 195.96 9.42 195.96 7.98C195.96 6.54 196.94 5.32 198.49 5.32C199.49 5.32 200.20 5.88 200.52 6.68L201.66 6.68C201.25 5.32 200.00 4.37 198.35 4.37C196.25 4.37 194.91 5.98 194.91 7.98C194.91 9.98 196.25 11.59 198.35 11.59C200.00 11.59 201.25 10.64 201.66 9.28L200.52 9.28C200.20 10.08 199.49 10.64 198.49 10.64ZM213.00 4.37C210.85 4.37 209.52 5.98 209.52 7.98C209.52 9.98 210.85 11.59 213.00 11.59C215.14 11.59 216.47 9.98 216.47 7.98C216.47 5.98 215.14 4.37 213.00 4.37ZM213.00 10.64C211.44 10.64 210.57 9.42 210.57 7.98C210.57 6.54 211.44 5.32 213.00 5.32C214.55 5.32 215.42 6.54 215.42 7.98C215.42 9.42 214.55 10.64 213.00 10.64ZM224.85 4.48L224.85 11.48L225.90 11.48L225.90 7.45C225.90 6.19 226.86 5.32 228.02 5.32C229.17 5.32 229.98 6.16 229.98 7.43L229.98 11.48L231.03 11.48L231.03 7.41C231.03 5.42 229.67 4.37 228.23 4.37C227.09 4.37 226.41 4.90 225.90 5.57L225.90 4.48ZM241.42 11.48L241.42 5.40L243.03 5.40L243.03 4.48L241.42 4.48L241.42 1.97L240.37 1.97L240.37 4.48L238.94 4.48L238.94 5.40L240.37 5.40L240.37 11.48ZM254.16 10.64C252.74 10.64 251.83 9.65 251.68 8.40L257.54 8.40L257.54 7.98C257.54 5.98 256.21 4.37 254.07 4.37C251.93 4.37 250.60 5.98 250.60 7.98C250.60 9.98 252.00 11.59 254.14 11.59C255.81 11.59 256.84 10.72 257.33 9.46L256.19 9.46C255.81 10.16 255.14 10.64 254.16 10.64ZM254.07 5.32C255.42 5.32 256.26 6.23 256.45 7.42L251.69 7.42C251.89 6.23 252.73 5.32 254.07 5.32ZM265.83 4.48L265.83 11.48L266.88 11.48L266.88 7.45C266.88 6.19 267.83 5.32 269.00 5.32C270.14 5.32 270.96 6.16 270.96 7.43L270.96 11.48L272.01 11.48L272.01 7.41C272.01 5.42 270.65 4.37 269.21 4.37C268.07 4.37 267.39 4.90 266.88 5.57L266.88 4.48ZM282.39 11.48L282.39 5.40L284.00 5.40L284.00 4.48L282.39 4.48L282.39 1.97L281.34 1.97L281.34 4.48L279.92 4.48L279.92 5.40L281.34 5.40L281.34 11.48ZM305.28 10.64C303.73 10.64 302.75 9.42 302.75 7.98C302.75 6.54 303.73 5.32 305.28 5.32C306.28 5.32 306.99 5.88 307.31 6.68L308.45 6.68C308.04 5.32 306.80 4.37 305.14 4.37C303.04 4.37 301.70 5.98 301.70 7.98C301.70 9.98 303.04 11.59 305.14 11.59C306.80 11.59 308.04 10.64 308.45 9.28L307.31 9.28C306.99 10.08 306.28 10.64 305.28 10.64ZM322.85 11.48L322.85 4.48L321.80 4.48L321.80 8.51C321.80 9.77 320.85 10.64 319.69 10.64C318.54 10.64 317.73 9.80 317.73 8.53L317.73 4.48L316.68 4.48L316.68 8.55C316.68 10.54 318.04 11.59 319.48 11.59C320.61 11.59 321.30 11.06 321.80 10.39L321.80 11.48ZM335.30 4.37C333.56 4.37 332.86 5.73 332.72 6.20L332.72 4.48L331.67 4.48L331.67 11.48L332.72 11.48L332.72 8.40C332.72 6.86 333.68 5.42 335.24 5.42L335.37 5.42L335.37 4.37ZM346.28 4.37C344.23 4.37 342.89 5.98 342.89 7.98C342.89 9.98 344.23 11.59 346.28 11.59C347.44 11.59 348.26 11.12 348.78 10.36L348.78 11.48L349.83 11.48L349.83 4.48L348.78 4.48L348.78 5.61C348.26 4.86 347.44 4.37 346.28 4.37ZM346.42 10.64C344.86 10.64 343.94 9.42 343.94 7.98C343.94 6.54 344.86 5.32 346.42 5.32C347.97 5.32 348.84 6.54 348.84 7.98C348.84 9.42 347.97 10.64 346.42 10.64ZM360.46 11.48L360.46 5.40L362.07 5.40L362.07 4.48L360.46 4.48L360.46 1.97L359.41 1.97L359.41 4.48L357.98 4.48L357.98 5.40L359.41 5.40L359.41 11.48ZM373.20 10.64C371.78 10.64 370.87 9.65 370.72 8.40L376.59 8.40L376.59 7.98C376.59 5.98 375.26 4.37 373.11 4.37C370.97 4.37 369.64 5.98 369.64 7.98C369.64 9.98 371.04 11.59 373.18 11.59C374.85 11.59 375.89 10.72 376.38 9.46L375.23 9.46C374.85 10.16 374.18 10.64 373.20 10.64ZM373.11 5.32C374.46 5.32 375.30 6.23 375.49 7.42L370.73 7.42C370.93 6.23 371.77 5.32 373.11 5.32ZM387.83 4.37C385.78 4.37 384.44 5.98 384.44 7.98C384.44 9.98 385.78 11.59 387.83 11.59C388.99 11.59 389.82 11.12 390.33 10.36L390.33 11.48L391.38 11.48L391.38 1.68L390.33 1.68L390.33 5.61C389.82 4.86 388.99 4.37 387.83 4.37ZM387.97 10.64C386.41 10.64 385.49 9.42 385.49 7.98C385.49 6.54 386.41 5.32 387.97 5.32C389.52 5.32 390.39 6.54 390.39 7.98C390.39 9.42 389.52 10.64 387.97 10.64ZM413.34 2.56L413.34 1.57L413.25 1.57C411.64 1.57 410.66 2.34 410.66 3.86L410.66 4.48L409.46 4.48L409.46 5.40L410.66 5.40L410.66 11.48L411.71 11.48L411.71 5.40L413.34 5.40L413.34 4.48L411.71 4.48L411.71 3.95C411.71 2.98 412.22 2.56 413.20 2.56ZM424.38 4.37C422.24 4.37 420.91 5.98 420.91 7.98C420.91 9.98 422.24 11.59 424.38 11.59C426.52 11.59 427.85 9.98 427.85 7.98C427.85 5.98 426.52 4.37 424.38 4.37ZM424.38 10.64C422.83 10.64 421.96 9.42 421.96 7.98C421.96 6.54 422.83 5.32 424.38 5.32C425.94 5.32 426.80 6.54 426.80 7.98C426.80 9.42 425.94 10.64 424.38 10.64ZM439.87 4.37C438.13 4.37 437.43 5.73 437.29 6.20L437.29 4.48L436.24 4.48L436.24 11.48L437.29 11.48L437.29 8.40C437.29 6.86 438.24 5.42 439.81 5.42L439.94 5.42L439.94 4.37ZM464.06 4.48L462.91 4.48L460.61 10.22L458.36 4.48L457.20 4.48L460.05 11.38L458.78 14.25L459.91 14.25ZM474.94 4.37C472.79 4.37 471.46 5.98 471.46 7.98C471.46 9.98 472.79 11.59 474.94 11.59C477.08 11.59 478.41 9.98 478.41 7.98C478.41 5.98 477.08 4.37 474.94 4.37ZM474.94 10.64C473.38 10.64 472.51 9.42 472.51 7.98C472.51 6.54 473.38 5.32 474.94 5.32C476.49 5.32 477.36 6.54 477.36 7.98C477.36 9.42 476.49 10.64 474.94 10.64ZM492.90 11.48L492.90 4.48L491.85 4.48L491.85 8.51C491.85 9.77 490.90 10.64 489.73 10.64C488.59 10.64 487.77 9.80 487.77 8.53L487.77 4.48L486.72 4.48L486.72 8.55C486.72 10.54 488.08 11.59 489.52 11.59C490.66 11.59 491.34 11.06 491.85 10.39L491.85 11.48Z"></path></g></svg>