<svg data-v-fde0c5aa="" xmlns="http://www.w3.org/2000/svg" viewBox="0 0 300 300" class="font"><!----><defs data-v-fde0c5aa=""><!----></defs><rect data-v-fde0c5aa="" fill="#F0B591" x="0" y="0" width="300px" height="300px" class="logo-background-square"></rect><defs data-v-fde0c5aa=""><!----></defs><g data-v-fde0c5aa="" id="7951aef9-ed62-4cbb-9a03-c1f0952a4340" fill="#ED7884" transform="matrix(3.078214582935691,0,0,3.078214582935691,39.32279279542368,120.3875753305288)"><path d="M1.97 14.38L1.97 12.59L1.97 12.59Q1.97 11.87 1.89 11.35L1.89 11.35L1.89 11.35Q1.82 10.83 1.70 10.44L1.70 10.44L1.70 10.44Q1.57 10.06 1.42 9.77L1.42 9.77L1.42 9.77Q1.26 9.48 1.09 9.23L1.09 9.23L1.09 9.23Q0.93 8.98 0.77 8.72L0.77 8.72L0.77 8.72Q0.62 8.47 0.49 8.15L0.49 8.15L0.49 8.15Q0.37 7.83 0.29 7.41L0.29 7.41L0.29 7.41Q0.22 6.99 0.22 6.40L0.22 6.40L0.22 4.75L0.22 4.75Q0.22 4.59 0.27 4.38L0.27 4.38L0.27 4.38Q0.32 4.17 0.46 3.99L0.46 3.99L0.46 3.99Q0.61 3.81 0.86 3.68L0.86 3.68L0.86 3.68Q1.12 3.55 1.53 3.55L1.53 3.55L1.53 3.55Q1.94 3.55 2.20 3.68L2.20 3.68L2.20 3.68Q2.45 3.81 2.60 3.99L2.60 3.99L2.60 3.99Q2.74 4.17 2.79 4.38L2.79 4.38L2.79 4.38Q2.84 4.59 2.84 4.75L2.84 4.75L2.84 7.81L1.97 7.81L1.97 4.75L1.97 4.75Q1.97 4.59 1.93 4.48L1.93 4.48L1.93 4.48Q1.89 4.38 1.83 4.32L1.83 4.32L1.83 4.32Q1.77 4.26 1.69 4.23L1.69 4.23L1.69 4.23Q1.61 4.21 1.53 4.21L1.53 4.21L1.53 4.21Q1.45 4.21 1.37 4.23L1.37 4.23L1.37 4.23Q1.29 4.26 1.23 4.32L1.23 4.32L1.23 4.32Q1.17 4.38 1.13 4.48L1.13 4.48L1.13 4.48Q1.09 4.59 1.09 4.75L1.09 4.75L1.09 6.08L1.09 6.08Q1.09 6.86 1.22 7.38L1.22 7.38L1.22 7.38Q1.35 7.90 1.55 8.28L1.55 8.28L1.55 8.28Q1.74 8.67 1.97 8.98L1.97 8.98L1.97 8.98Q2.19 9.30 2.39 9.66L2.39 9.66L2.39 9.66Q2.58 10.03 2.71 10.51L2.71 10.51L2.71 10.51Q2.84 10.99 2.84 11.71L2.84 11.71L2.84 14.38L2.84 14.38Q2.84 14.46 2.82 14.67L2.82 14.67L2.82 14.67Q2.80 14.89 2.68 15.11L2.68 15.11L2.68 15.11Q2.56 15.34 2.29 15.51L2.29 15.51L2.29 15.51Q2.02 15.69 1.53 15.69L1.53 15.69L1.53 15.69Q1.04 15.69 0.77 15.51L0.77 15.51L0.77 15.51Q0.51 15.34 0.38 15.11L0.38 15.11L0.38 15.11Q0.26 14.89 0.24 14.67L0.24 14.67L0.24 14.67Q0.22 14.46 0.22 14.38L0.22 14.38L0.22 10.44L1.09 10.44L1.09 14.38L1.09 14.38Q1.09 14.46 1.10 14.57L1.10 14.57L1.10 14.57Q1.11 14.68 1.15 14.79L1.15 14.79L1.15 14.79Q1.19 14.89 1.28 14.96L1.28 14.96L1.28 14.96Q1.37 15.03 1.53 15.03L1.53 15.03L1.53 15.03Q1.70 15.03 1.78 14.96L1.78 14.96L1.78 14.96Q1.87 14.89 1.91 14.79L1.91 14.79L1.91 14.79Q1.96 14.68 1.96 14.57L1.96 14.57L1.96 14.57Q1.97 14.46 1.97 14.38L1.97 14.38ZM6.13 6.06L6.13 9.56L6.13 9.56Q6.13 9.97 5.97 10.20L5.97 10.20L5.97 10.20Q5.82 10.42 5.58 10.52L5.58 10.52L5.58 10.52Q5.33 10.62 5.02 10.64L5.02 10.64L5.02 10.64Q4.70 10.66 4.38 10.66L4.38 10.66L4.38 15.47L3.50 15.47L3.50 4.97L4.59 4.97L4.59 4.97Q5.17 4.97 5.49 5.08L5.49 5.08L5.49 5.08Q5.80 5.19 5.94 5.35L5.94 5.35L5.94 5.35Q6.08 5.52 6.10 5.71L6.10 5.71L6.10 5.71Q6.13 5.90 6.13 6.06L6.13 6.06ZM5.25 9.34L5.25 6.06L5.25 6.06Q5.25 5.90 5.21 5.81L5.21 5.81L5.21 5.81Q5.16 5.72 5.06 5.68L5.06 5.68L5.06 5.68Q4.96 5.64 4.79 5.63L4.79 5.63L4.79 5.63Q4.62 5.63 4.38 5.63L4.38 5.63L4.38 10.00L4.38 10.00Q4.54 10.00 4.70 9.99L4.70 9.99L4.70 9.99Q4.85 9.98 4.98 9.92L4.98 9.92L4.98 9.92Q5.10 9.86 5.17 9.72L5.17 9.72L5.17 9.72Q5.25 9.59 5.25 9.34L5.25 9.34ZM8.31 4.97L9.19 15.47L8.31 15.47L8.18 13.20L7.57 13.20L7.44 15.47L6.56 15.47L7.44 4.97L8.31 4.97ZM7.62 12.49L8.13 12.49L7.88 7.16L7.62 12.49ZM12.47 4.97L12.47 15.47L11.81 15.47L10.61 9.34L10.61 15.47L9.84 15.47L9.84 4.97L10.50 4.97L11.71 11.31L11.71 4.97L12.47 4.97ZM13.45 4.97L14.33 4.97L14.33 15.47L13.45 15.47L13.45 4.97ZM17.72 5.95L17.72 8.69L16.84 8.69L16.84 5.95L16.84 5.95Q16.84 5.71 16.74 5.61L16.74 5.61L16.74 5.61Q16.64 5.52 16.52 5.52L16.52 5.52L16.52 5.52Q16.39 5.52 16.29 5.61L16.29 5.61L16.29 5.61Q16.19 5.71 16.19 5.95L16.19 5.95L16.19 5.95Q16.19 6.69 16.26 7.30L16.26 7.30L16.26 7.30Q16.32 7.92 16.43 8.44L16.43 8.44L16.43 8.44Q16.54 8.96 16.68 9.38L16.68 9.38L16.68 9.38Q16.82 9.81 16.95 10.17L16.95 10.17L16.95 10.17Q17.06 10.45 17.20 10.81L17.20 10.81L17.20 10.81Q17.33 11.18 17.45 11.70L17.45 11.70L17.45 11.70Q17.56 12.21 17.64 12.89L17.64 12.89L17.64 12.89Q17.72 13.58 17.72 14.49L17.72 14.49L17.72 14.49Q17.72 14.77 17.62 14.98L17.62 14.98L17.62 14.98Q17.51 15.19 17.34 15.32L17.34 15.32L17.34 15.32Q17.17 15.46 16.96 15.52L16.96 15.52L16.96 15.52Q16.74 15.58 16.52 15.58L16.52 15.58L16.52 15.58Q16.29 15.58 16.07 15.52L16.07 15.52L16.07 15.52Q15.86 15.46 15.69 15.32L15.69 15.32L15.69 15.32Q15.52 15.19 15.42 14.98L15.42 14.98L15.42 14.98Q15.31 14.77 15.31 14.49L15.31 14.49L15.31 11.75L16.19 11.75L16.19 14.49L16.19 14.49Q16.19 14.73 16.29 14.83L16.29 14.83L16.29 14.83Q16.39 14.92 16.52 14.92L16.52 14.92L16.52 14.92Q16.64 14.92 16.74 14.83L16.74 14.83L16.74 14.83Q16.84 14.73 16.84 14.49L16.84 14.49L16.84 14.49Q16.84 13.60 16.76 12.94L16.76 12.94L16.76 12.94Q16.67 12.27 16.54 11.76L16.54 11.76L16.54 11.76Q16.41 11.25 16.26 10.87L16.26 10.87L16.26 10.87Q16.11 10.49 15.98 10.17L15.98 10.17L15.98 10.17Q15.85 9.85 15.73 9.45L15.73 9.45L15.73 9.45Q15.61 9.04 15.51 8.53L15.51 8.53L15.51 8.53Q15.42 8.02 15.37 7.38L15.37 7.38L15.37 7.38Q15.31 6.74 15.31 5.95L15.31 5.95L15.31 5.95Q15.31 5.67 15.42 5.46L15.42 5.46L15.42 5.46Q15.52 5.26 15.69 5.12L15.69 5.12L15.69 5.12Q15.86 4.99 16.07 4.93L16.07 4.93L16.07 4.93Q16.29 4.86 16.52 4.86L16.52 4.86L16.52 4.86Q16.74 4.86 16.96 4.93L16.96 4.93L16.96 4.93Q17.17 4.99 17.34 5.12L17.34 5.12L17.34 5.12Q17.51 5.26 17.62 5.46L17.62 5.46L17.62 5.46Q17.72 5.67 17.72 5.95L17.72 5.95ZM20.34 9.69L20.34 4.97L21.22 4.97L21.22 15.47L20.34 15.47L20.34 10.37L19.47 10.37L19.47 15.47L18.59 15.47L18.59 4.97L19.47 4.97L19.47 9.69L20.34 9.69ZM26.34 4.75L26.34 8.47L26.34 8.47Q26.34 8.96 26.17 9.15L26.17 9.15L26.17 9.15Q26.01 9.34 25.68 9.34L25.68 9.34L25.68 9.34Q25.85 9.34 25.97 9.42L25.97 9.42L25.97 9.42Q26.09 9.50 26.17 9.62L26.17 9.62L26.17 9.62Q26.26 9.74 26.30 9.90L26.30 9.90L26.30 9.90Q26.34 10.06 26.34 10.22L26.34 10.22L26.34 15.47L25.46 15.47L25.46 10.00L25.46 10.00Q25.46 9.84 25.39 9.75L25.39 9.75L25.39 9.75Q25.31 9.66 25.19 9.62L25.19 9.62L25.19 9.62Q25.07 9.58 24.91 9.57L24.91 9.57L24.91 9.57Q24.75 9.56 24.59 9.56L24.59 9.56L24.59 15.47L23.71 15.47L23.71 3.66L24.59 3.66L24.59 3.66Q24.92 3.66 25.23 3.67L25.23 3.67L25.23 3.67Q25.55 3.69 25.79 3.79L25.79 3.79L25.79 3.79Q26.04 3.90 26.19 4.12L26.19 4.12L26.19 4.12Q26.34 4.34 26.34 4.75L26.34 4.75ZM25.46 8.69L25.46 4.75L25.46 4.75Q25.46 4.59 25.42 4.50L25.42 4.50L25.42 4.50Q25.38 4.41 25.27 4.37L25.27 4.37L25.27 4.37Q25.17 4.33 25.00 4.32L25.00 4.32L25.00 4.32Q24.83 4.31 24.59 4.31L24.59 4.31L24.59 9.13L24.59 9.13Q24.75 9.13 24.91 9.12L24.91 9.12L24.91 9.12Q25.07 9.11 25.19 9.07L25.19 9.07L25.19 9.07Q25.31 9.03 25.39 8.94L25.39 8.94L25.39 8.94Q25.46 8.85 25.46 8.69L25.46 8.69ZM28.96 4.97L28.96 5.63L28.09 5.63L28.09 9.56L28.96 9.56L28.96 10.22L28.09 10.22L28.09 14.81L28.96 14.81L28.96 15.47L27.21 15.47L27.21 4.97L28.96 4.97ZM32.03 5.95L32.03 8.69L31.15 8.69L31.15 5.95L31.15 5.95Q31.15 5.71 31.05 5.61L31.05 5.61L31.05 5.61Q30.95 5.52 30.82 5.52L30.82 5.52L30.82 5.52Q30.70 5.52 30.60 5.61L30.60 5.61L30.60 5.61Q30.50 5.71 30.50 5.95L30.50 5.95L30.50 5.95Q30.50 6.69 30.56 7.30L30.56 7.30L30.56 7.30Q30.63 7.92 30.74 8.44L30.74 8.44L30.74 8.44Q30.85 8.96 30.99 9.38L30.99 9.38L30.99 9.38Q31.12 9.81 31.26 10.17L31.26 10.17L31.26 10.17Q31.37 10.45 31.50 10.81L31.50 10.81L31.50 10.81Q31.64 11.18 31.75 11.70L31.75 11.70L31.75 11.70Q31.87 12.21 31.95 12.89L31.95 12.89L31.95 12.89Q32.03 13.58 32.03 14.49L32.03 14.49L32.03 14.49Q32.03 14.77 31.92 14.98L31.92 14.98L31.92 14.98Q31.82 15.19 31.65 15.32L31.65 15.32L31.65 15.32Q31.48 15.46 31.26 15.52L31.26 15.52L31.26 15.52Q31.05 15.58 30.82 15.58L30.82 15.58L30.82 15.58Q30.60 15.58 30.38 15.52L30.38 15.52L30.38 15.52Q30.17 15.46 30.00 15.32L30.00 15.32L30.00 15.32Q29.83 15.19 29.72 14.98L29.72 14.98L29.72 14.98Q29.62 14.77 29.62 14.49L29.62 14.49L29.62 11.75L30.50 11.75L30.50 14.49L30.50 14.49Q30.50 14.73 30.60 14.83L30.60 14.83L30.60 14.83Q30.70 14.92 30.82 14.92L30.82 14.92L30.82 14.92Q30.95 14.92 31.05 14.83L31.05 14.83L31.05 14.83Q31.15 14.73 31.15 14.49L31.15 14.49L31.15 14.49Q31.15 13.60 31.07 12.94L31.07 12.94L31.07 12.94Q30.98 12.27 30.85 11.76L30.85 11.76L30.85 11.76Q30.72 11.25 30.57 10.87L30.57 10.87L30.57 10.87Q30.41 10.49 30.28 10.17L30.28 10.17L30.28 10.17Q30.15 9.85 30.03 9.45L30.03 9.45L30.03 9.45Q29.91 9.04 29.82 8.53L29.82 8.53L29.82 8.53Q29.73 8.02 29.67 7.38L29.67 7.38L29.67 7.38Q29.62 6.74 29.62 5.95L29.62 5.95L29.62 5.95Q29.62 5.67 29.72 5.46L29.72 5.46L29.72 5.46Q29.83 5.26 30.00 5.12L30.00 5.12L30.00 5.12Q30.17 4.99 30.38 4.93L30.38 4.93L30.38 4.93Q30.60 4.86 30.82 4.86L30.82 4.86L30.82 4.86Q31.05 4.86 31.26 4.93L31.26 4.93L31.26 4.93Q31.48 4.99 31.65 5.12L31.65 5.12L31.65 5.12Q31.82 5.26 31.92 5.46L31.92 5.46L31.92 5.46Q32.03 5.67 32.03 5.95L32.03 5.95ZM35.53 5.95L35.53 14.49L35.53 14.49Q35.53 14.77 35.42 14.98L35.42 14.98L35.42 14.98Q35.31 15.19 35.14 15.33L35.14 15.33L35.14 15.33Q34.96 15.46 34.73 15.53L34.73 15.53L34.73 15.53Q34.51 15.59 34.27 15.59L34.27 15.59L34.27 15.59Q34.02 15.59 33.77 15.52L33.77 15.52L33.77 15.52Q33.52 15.45 33.33 15.31L33.33 15.31L33.33 15.31Q33.14 15.17 33.02 14.96L33.02 14.96L33.02 14.96Q32.90 14.75 32.90 14.49L32.90 14.49L32.90 5.95L32.90 5.95Q32.90 5.69 33.02 5.49L33.02 5.49L33.02 5.49Q33.14 5.29 33.34 5.15L33.34 5.15L33.34 5.15Q33.53 5.02 33.78 4.95L33.78 4.95L33.78 4.95Q34.02 4.87 34.28 4.87L34.28 4.87L34.28 4.87Q34.51 4.87 34.74 4.94L34.74 4.94L34.74 4.94Q34.97 5.00 35.14 5.14L35.14 5.14L35.14 5.14Q35.31 5.27 35.42 5.48L35.42 5.48L35.42 5.48Q35.53 5.68 35.53 5.95L35.53 5.95ZM34.65 14.49L34.65 5.95L34.65 5.95Q34.65 5.72 34.54 5.62L34.54 5.62L34.54 5.62Q34.43 5.52 34.28 5.52L34.28 5.52L34.28 5.52Q34.19 5.52 34.10 5.55L34.10 5.55L34.10 5.55Q34.01 5.58 33.94 5.64L33.94 5.64L33.94 5.64Q33.87 5.70 33.82 5.78L33.82 5.78L33.82 5.78Q33.78 5.86 33.78 5.95L33.78 5.95L33.78 14.49L33.78 14.49Q33.78 14.58 33.82 14.66L33.82 14.66L33.82 14.66Q33.87 14.75 33.94 14.80L33.94 14.80L33.94 14.80Q34.01 14.85 34.09 14.89L34.09 14.89L34.09 14.89Q34.18 14.92 34.27 14.92L34.27 14.92L34.27 14.92Q34.42 14.92 34.54 14.82L34.54 14.82L34.54 14.82Q34.65 14.72 34.65 14.49L34.65 14.49ZM37.93 14.49L37.93 4.97L38.81 4.97L38.81 14.49L38.81 14.49Q38.81 14.77 38.71 14.98L38.71 14.98L38.71 14.98Q38.60 15.19 38.43 15.32L38.43 15.32L38.43 15.32Q38.26 15.46 38.05 15.52L38.05 15.52L38.05 15.52Q37.83 15.58 37.60 15.58L37.60 15.58L37.60 15.58Q37.38 15.58 37.16 15.52L37.16 15.52L37.16 15.52Q36.95 15.46 36.78 15.32L36.78 15.32L36.78 15.32Q36.61 15.19 36.50 14.98L36.50 14.98L36.50 14.98Q36.40 14.77 36.40 14.49L36.40 14.49L36.40 4.97L37.28 4.97L37.28 14.49L37.28 14.49Q37.28 14.73 37.38 14.83L37.38 14.83L37.38 14.83Q37.48 14.92 37.60 14.92L37.60 14.92L37.60 14.92Q37.73 14.92 37.83 14.83L37.83 14.83L37.83 14.83Q37.93 14.73 37.93 14.49L37.93 14.49ZM42.09 5.84L42.09 9.34L42.09 9.34Q42.09 9.67 41.92 9.85L41.92 9.85L41.92 9.85Q41.76 10.03 41.43 10.10L41.43 10.10L41.43 10.10Q41.76 10.19 41.92 10.37L41.92 10.37L41.92 10.37Q42.09 10.55 42.09 10.88L42.09 10.88L42.09 15.47L41.21 15.47L41.21 10.88L41.21 10.88Q41.21 10.71 41.17 10.62L41.17 10.62L41.17 10.62Q41.13 10.53 41.05 10.49L41.05 10.49L41.05 10.49Q40.97 10.45 40.84 10.45L40.84 10.45L40.84 10.45Q40.72 10.44 40.56 10.44L40.56 10.44L40.56 15.47L39.68 15.47L39.68 4.97L40.67 4.97L40.67 4.97Q41.11 4.97 41.43 5.04L41.43 5.04L41.43 5.04Q41.75 5.11 41.92 5.29L41.92 5.29L41.92 5.29Q42.09 5.48 42.09 5.84L42.09 5.84ZM41.21 9.34L41.21 6.06L41.21 6.06Q41.21 5.90 41.17 5.81L41.17 5.81L41.17 5.81Q41.13 5.72 41.05 5.68L41.05 5.68L41.05 5.68Q40.97 5.64 40.84 5.63L40.84 5.63L40.84 5.63Q40.72 5.63 40.56 5.63L40.56 5.63L40.56 9.78L40.56 9.78Q40.72 9.78 40.84 9.78L40.84 9.78L40.84 9.78Q40.97 9.77 41.05 9.73L41.05 9.73L41.05 9.73Q41.13 9.69 41.17 9.60L41.17 9.60L41.17 9.60Q41.21 9.51 41.21 9.34L41.21 9.34ZM45.59 5.95L45.59 9.34L44.71 9.34L44.71 5.95L44.71 5.95Q44.71 5.72 44.60 5.62L44.60 5.62L44.60 5.62Q44.48 5.52 44.33 5.52L44.33 5.52L44.33 5.52Q44.24 5.52 44.16 5.55L44.16 5.55L44.16 5.55Q44.07 5.58 44.00 5.64L44.00 5.64L44.00 5.64Q43.93 5.70 43.88 5.78L43.88 5.78L43.88 5.78Q43.84 5.86 43.84 5.95L43.84 5.95L43.84 14.49L43.84 14.49Q43.84 14.58 43.88 14.66L43.88 14.66L43.88 14.66Q43.93 14.75 44.00 14.80L44.00 14.80L44.00 14.80Q44.07 14.86 44.16 14.89L44.16 14.89L44.16 14.89Q44.24 14.92 44.33 14.92L44.33 14.92L44.33 14.92Q44.48 14.92 44.60 14.82L44.60 14.82L44.60 14.82Q44.71 14.72 44.71 14.49L44.71 14.49L44.71 10.66L45.59 10.66L45.59 14.49L45.59 14.49Q45.59 14.76 45.47 14.97L45.47 14.97L45.47 14.97Q45.36 15.18 45.17 15.32L45.17 15.32L45.17 15.32Q44.99 15.46 44.75 15.53L44.75 15.53L44.75 15.53Q44.51 15.60 44.26 15.60L44.26 15.60L44.26 15.60Q44.02 15.60 43.78 15.53L43.78 15.53L43.78 15.53Q43.55 15.46 43.37 15.32L43.37 15.32L43.37 15.32Q43.18 15.18 43.07 14.97L43.07 14.97L43.07 14.97Q42.96 14.77 42.96 14.49L42.96 14.49L42.96 5.95L42.96 5.95Q42.96 5.68 43.08 5.47L43.08 5.47L43.08 5.47Q43.19 5.26 43.37 5.12L43.37 5.12L43.37 5.12Q43.56 4.98 43.80 4.91L43.80 4.91L43.80 4.91Q44.04 4.84 44.28 4.84L44.28 4.84L44.28 4.84Q44.53 4.84 44.76 4.91L44.76 4.91L44.76 4.91Q44.99 4.98 45.18 5.12L45.18 5.12L45.18 5.12Q45.36 5.26 45.48 5.47L45.48 5.47L45.48 5.47Q45.59 5.67 45.59 5.95L45.59 5.95ZM48.21 4.97L48.21 5.63L47.34 5.63L47.34 9.56L48.21 9.56L48.21 10.22L47.34 10.22L47.34 14.81L48.21 14.81L48.21 15.47L46.46 15.47L46.46 4.97L48.21 4.97ZM51.28 5.95L51.28 8.69L50.40 8.69L50.40 5.95L50.40 5.95Q50.40 5.71 50.30 5.61L50.30 5.61L50.30 5.61Q50.20 5.52 50.07 5.52L50.07 5.52L50.07 5.52Q49.95 5.52 49.85 5.61L49.85 5.61L49.85 5.61Q49.75 5.71 49.75 5.95L49.75 5.95L49.75 5.95Q49.75 6.69 49.81 7.30L49.81 7.30L49.81 7.30Q49.88 7.92 49.99 8.44L49.99 8.44L49.99 8.44Q50.10 8.96 50.24 9.38L50.24 9.38L50.24 9.38Q50.37 9.81 50.51 10.17L50.51 10.17L50.51 10.17Q50.62 10.45 50.75 10.81L50.75 10.81L50.75 10.81Q50.89 11.18 51.00 11.70L51.00 11.70L51.00 11.70Q51.12 12.21 51.20 12.89L51.20 12.89L51.20 12.89Q51.28 13.58 51.28 14.49L51.28 14.49L51.28 14.49Q51.28 14.77 51.17 14.98L51.17 14.98L51.17 14.98Q51.07 15.19 50.90 15.32L50.90 15.32L50.90 15.32Q50.73 15.46 50.51 15.52L50.51 15.52L50.51 15.52Q50.30 15.58 50.07 15.58L50.07 15.58L50.07 15.58Q49.85 15.58 49.63 15.52L49.63 15.52L49.63 15.52Q49.42 15.46 49.25 15.32L49.25 15.32L49.25 15.32Q49.08 15.19 48.97 14.98L48.97 14.98L48.97 14.98Q48.87 14.77 48.87 14.49L48.87 14.49L48.87 11.75L49.75 11.75L49.75 14.49L49.75 14.49Q49.75 14.73 49.85 14.83L49.85 14.83L49.85 14.83Q49.95 14.92 50.07 14.92L50.07 14.92L50.07 14.92Q50.20 14.92 50.30 14.83L50.30 14.83L50.30 14.83Q50.40 14.73 50.40 14.49L50.40 14.49L50.40 14.49Q50.40 13.60 50.32 12.94L50.32 12.94L50.32 12.94Q50.23 12.27 50.10 11.76L50.10 11.76L50.10 11.76Q49.97 11.25 49.82 10.87L49.82 10.87L49.82 10.87Q49.66 10.49 49.53 10.17L49.53 10.17L49.53 10.17Q49.40 9.85 49.28 9.45L49.28 9.45L49.28 9.45Q49.16 9.04 49.07 8.53L49.07 8.53L49.07 8.53Q48.98 8.02 48.92 7.38L48.92 7.38L48.92 7.38Q48.87 6.74 48.87 5.95L48.87 5.95L48.87 5.95Q48.87 5.67 48.97 5.46L48.97 5.46L48.97 5.46Q49.08 5.26 49.25 5.12L49.25 5.12L49.25 5.12Q49.42 4.99 49.63 4.93L49.63 4.93L49.63 4.93Q49.85 4.86 50.07 4.86L50.07 4.86L50.07 4.86Q50.30 4.86 50.51 4.93L50.51 4.93L50.51 4.93Q50.73 4.99 50.90 5.12L50.90 5.12L50.90 5.12Q51.07 5.26 51.17 5.46L51.17 5.46L51.17 5.46Q51.28 5.67 51.28 5.95L51.28 5.95ZM55.74 4.97L55.74 5.63L54.65 5.63L54.65 9.56L55.52 9.56L55.52 10.22L54.65 10.22L54.65 15.47L53.77 15.47L53.77 4.97L55.74 4.97ZM58.91 5.95L58.91 14.49L58.91 14.49Q58.91 14.77 58.81 14.98L58.81 14.98L58.81 14.98Q58.70 15.19 58.52 15.33L58.52 15.33L58.52 15.33Q58.34 15.46 58.12 15.53L58.12 15.53L58.12 15.53Q57.89 15.59 57.65 15.59L57.65 15.59L57.65 15.59Q57.40 15.59 57.16 15.52L57.16 15.52L57.16 15.52Q56.91 15.45 56.72 15.31L56.72 15.31L56.72 15.31Q56.53 15.17 56.41 14.96L56.41 14.96L56.41 14.96Q56.29 14.75 56.29 14.49L56.29 14.49L56.29 5.95L56.29 5.95Q56.29 5.69 56.41 5.49L56.41 5.49L56.41 5.49Q56.53 5.29 56.72 5.15L56.72 5.15L56.72 5.15Q56.92 5.02 57.16 4.95L57.16 4.95L57.16 4.95Q57.41 4.87 57.66 4.87L57.66 4.87L57.66 4.87Q57.90 4.87 58.13 4.94L58.13 4.94L58.13 4.94Q58.35 5.00 58.53 5.14L58.53 5.14L58.53 5.14Q58.70 5.27 58.81 5.48L58.81 5.48L58.81 5.48Q58.91 5.68 58.91 5.95L58.91 5.95ZM58.04 14.49L58.04 5.95L58.04 5.95Q58.04 5.72 57.92 5.62L57.92 5.62L57.92 5.62Q57.81 5.52 57.66 5.52L57.66 5.52L57.66 5.52Q57.57 5.52 57.48 5.55L57.48 5.55L57.48 5.55Q57.39 5.58 57.32 5.64L57.32 5.64L57.32 5.64Q57.25 5.70 57.21 5.78L57.21 5.78L57.21 5.78Q57.16 5.86 57.16 5.95L57.16 5.95L57.16 14.49L57.16 14.49Q57.16 14.58 57.21 14.66L57.21 14.66L57.21 14.66Q57.25 14.75 57.32 14.80L57.32 14.80L57.32 14.80Q57.39 14.85 57.48 14.89L57.48 14.89L57.48 14.89Q57.57 14.92 57.65 14.92L57.65 14.92L57.65 14.92Q57.80 14.92 57.92 14.82L57.92 14.82L57.92 14.82Q58.04 14.72 58.04 14.49L58.04 14.49ZM62.19 5.84L62.19 9.34L62.19 9.34Q62.19 9.67 62.03 9.85L62.03 9.85L62.03 9.85Q61.87 10.03 61.54 10.10L61.54 10.10L61.54 10.10Q61.87 10.19 62.03 10.37L62.03 10.37L62.03 10.37Q62.19 10.55 62.19 10.88L62.19 10.88L62.19 15.47L61.32 15.47L61.32 10.88L61.32 10.88Q61.32 10.71 61.28 10.62L61.28 10.62L61.28 10.62Q61.24 10.53 61.15 10.49L61.15 10.49L61.15 10.49Q61.07 10.45 60.95 10.45L60.95 10.45L60.95 10.45Q60.83 10.44 60.66 10.44L60.66 10.44L60.66 15.47L59.79 15.47L59.79 4.97L60.77 4.97L60.77 4.97Q61.22 4.97 61.53 5.04L61.53 5.04L61.53 5.04Q61.85 5.11 62.02 5.29L62.02 5.29L62.02 5.29Q62.19 5.48 62.19 5.84L62.19 5.84ZM61.32 9.34L61.32 6.06L61.32 6.06Q61.32 5.90 61.28 5.81L61.28 5.81L61.28 5.81Q61.24 5.72 61.15 5.68L61.15 5.68L61.15 5.68Q61.07 5.64 60.95 5.63L60.95 5.63L60.95 5.63Q60.83 5.63 60.66 5.63L60.66 5.63L60.66 9.78L60.66 9.78Q60.83 9.78 60.95 9.78L60.95 9.78L60.95 9.78Q61.07 9.77 61.15 9.73L61.15 9.73L61.15 9.73Q61.24 9.69 61.28 9.60L61.28 9.60L61.28 9.60Q61.32 9.51 61.32 9.34L61.32 9.34ZM66.44 3.66L67.09 15.47L66.22 15.47L66.11 12.63L65.46 12.63L65.34 15.47L64.47 15.47L65.13 3.66L66.44 3.66ZM66.11 11.97L66.00 9.34L65.78 4.09L65.56 9.34L65.46 11.97L66.11 11.97ZM67.75 4.97L68.63 4.97L68.63 14.81L69.50 14.81L69.50 15.47L67.75 15.47L67.75 4.97ZM69.94 4.97L70.81 4.97L70.81 14.81L71.69 14.81L71.69 15.47L69.94 15.47L69.94 4.97Z"></path></g><!----><!----></svg>