<?xml version="1.0" encoding="UTF-8"?>
<svg xmlns="http://www.w3.org/2000/svg" xmlns:xlink="http://www.w3.org/1999/xlink" width="15px" height="16px" viewBox="0 0 15 16" version="1.1">
<g id="surface1">
<path style=" stroke:none;fill-rule:nonzero;fill:rgb(92.941176%,47.058824%,51.764706%);fill-opacity:1;" d="M 6.707031 11.835938 C 6.777344 11.804688 6.757812 11.804688 6.792969 11.789062 C 7.113281 11.625 7.296875 11.886719 7.046875 12.066406 L 7.046875 12.082031 L 7.027344 12.082031 L 7.027344 12.097656 L 7.011719 12.097656 L 6.996094 12.113281 C 6.984375 12.125 6.972656 12.128906 6.960938 12.128906 C 6.960938 12.140625 6.957031 12.148438 6.945312 12.148438 C 6.933594 12.148438 6.921875 12.152344 6.910156 12.164062 L 6.894531 12.164062 L 6.878906 12.179688 L 6.84375 12.179688 C 6.84375 12.191406 6.835938 12.195312 6.828125 12.195312 C 5.445312 12.765625 4.066406 12.667969 2.667969 11.738281 C 2.679688 11.726562 2.683594 11.71875 2.683594 11.707031 L 2.683594 11.671875 C 2.695312 11.652344 2.703125 11.636719 2.703125 11.625 L 2.703125 11.59375 C 4.117188 12.472656 5.328125 12.425781 6.707031 11.835938 Z M 1.824219 11.511719 L 1.808594 11.492188 L 1.808594 11.511719 L 1.792969 11.511719 L 1.792969 11.542969 C 1.640625 11.789062 1.335938 12.03125 1.167969 11.933594 C 1 11.851562 1.050781 11.460938 1.1875 11.214844 L 1.203125 11.183594 L 1.167969 11.183594 C 0.867188 11.117188 0.546875 10.90625 0.582031 10.726562 C 0.597656 10.597656 0.867188 10.515625 1.117188 10.515625 C 1.21875 10.597656 1.3125 10.6875 1.40625 10.777344 C 1.4375 10.820312 1.476562 10.855469 1.523438 10.890625 L 1.507812 10.90625 C 1.507812 10.9375 1.511719 10.972656 1.523438 11.003906 C 1.535156 11.039062 1.550781 11.070312 1.574219 11.101562 C 1.605469 11.121094 1.640625 11.140625 1.675781 11.152344 C 1.707031 11.152344 1.746094 11.144531 1.792969 11.132812 C 1.816406 11.132812 1.832031 11.128906 1.84375 11.117188 C 1.863281 11.109375 1.882812 11.089844 1.894531 11.070312 C 1.90625 11.046875 1.914062 11.03125 1.925781 11.019531 C 1.9375 11 1.945312 10.976562 1.945312 10.957031 C 1.945312 10.921875 1.9375 10.890625 1.925781 10.855469 C 1.914062 10.824219 1.898438 10.796875 1.875 10.777344 C 1.84375 10.753906 1.808594 10.742188 1.777344 10.742188 C 1.753906 10.730469 1.726562 10.730469 1.691406 10.742188 C 1.566406 10.632812 1.4375 10.53125 1.304688 10.433594 C 1.304688 10.15625 1.40625 9.84375 1.574219 9.8125 C 1.757812 9.796875 1.960938 10.121094 1.996094 10.417969 L 1.996094 10.449219 C 2.003906 10.4375 2.023438 10.433594 2.042969 10.433594 C 2.3125 10.300781 2.703125 10.285156 2.785156 10.449219 C 2.851562 10.613281 2.601562 10.90625 2.332031 11.019531 L 2.296875 11.035156 L 2.332031 11.070312 C 2.53125 11.28125 2.667969 11.640625 2.53125 11.753906 C 2.398438 11.886719 2.027344 11.722656 1.824219 11.511719 Z M 1.859375 10.988281 L 1.859375 11.003906 L 1.84375 11.019531 L 1.824219 11.035156 L 1.808594 11.054688 C 1.773438 11.027344 1.738281 11 1.707031 10.972656 L 1.625 10.890625 L 1.539062 10.808594 C 1.515625 10.78125 1.492188 10.753906 1.472656 10.726562 C 1 10.269531 0.511719 10.007812 -0.0585938 9.84375 C 0.496094 9.941406 1 10.21875 1.523438 10.675781 C 1.546875 10.710938 1.574219 10.738281 1.605469 10.757812 L 1.691406 10.839844 C 1.714844 10.863281 1.742188 10.882812 1.777344 10.90625 C 1.808594 10.925781 1.835938 10.957031 1.859375 10.988281 Z M 4.417969 11.199219 C 4.066406 11.640625 3.476562 11.476562 3.191406 10.90625 C 3.019531 10.578125 2.9375 10.203125 2.820312 9.84375 C 2.734375 9.550781 1.960938 8.980469 1.726562 8.652344 C 1.472656 8.277344 1.539062 8.066406 1.808594 7.59375 C 1.960938 7.296875 2.195312 6.988281 2.5 6.875 C 1.167969 6.15625 0.984375 4.964844 1.1875 4.75 C 1.40625 4.523438 1.859375 4.785156 2.179688 3.234375 C 2.5 1.601562 3.8125 2.285156 4.773438 0.996094 C 5.292969 0.292969 6.472656 0.0664062 7.398438 0.113281 C 8.34375 0.0664062 9.519531 0.292969 10.042969 0.996094 C 11.003906 2.285156 12.316406 1.601562 12.636719 3.234375 C 12.957031 4.785156 13.410156 4.523438 13.628906 4.75 C 13.8125 4.964844 13.644531 6.15625 12.316406 6.875 C 12.785156 6.921875 13.15625 7.332031 13.15625 7.789062 C 13.175781 8.390625 12.566406 9.042969 12.199219 9.519531 C 11.84375 9.941406 11.84375 10.417969 11.609375 10.90625 C 11.320312 11.476562 10.734375 11.640625 10.378906 11.199219 C 10.378906 11.222656 10.375 11.238281 10.363281 11.25 C 10.363281 11.269531 10.355469 11.292969 10.34375 11.3125 L 10.34375 11.378906 C 10.335938 11.390625 10.328125 11.40625 10.328125 11.429688 C 10.292969 11.671875 10.277344 11.902344 10.246094 12.113281 C 10.164062 12.113281 10.082031 12.121094 9.992188 12.128906 C 10.027344 11.625 10.058594 11.101562 10.378906 10.628906 C 10.515625 10.433594 10.664062 10.269531 10.800781 10.058594 C 11.070312 9.683594 11.304688 9.175781 11.203125 8.050781 C 11.085938 6.777344 10.78125 5.207031 10.78125 5.207031 C 10.78125 5.207031 10.75 5.09375 10.699219 4.929688 C 10.394531 4.210938 9.824219 3.886719 9.148438 3.820312 C 8.78125 3.789062 8.59375 3.820312 8.460938 3.949219 C 8.324219 4.082031 8.140625 4.195312 7.953125 4.195312 L 7.398438 4.179688 L 6.859375 4.195312 C 6.675781 4.195312 6.472656 4.082031 6.339844 3.949219 C 6.238281 3.835938 6.085938 3.804688 5.816406 3.820312 C 5.074219 3.835938 4.417969 4.164062 4.117188 4.929688 C 4.046875 5.09375 4.03125 5.207031 4.03125 5.207031 C 4.03125 5.207031 3.710938 6.777344 3.59375 8.050781 C 3.492188 9.175781 3.730469 9.683594 3.996094 10.058594 C 4.335938 10.546875 4.636719 10.777344 4.722656 11.394531 C 4.753906 11.65625 4.789062 11.886719 4.804688 12.128906 C 4.785156 12.128906 4.761719 12.125 4.738281 12.113281 L 4.554688 12.113281 C 4.519531 11.789062 4.503906 11.492188 4.417969 11.199219 Z M 10.496094 10.921875 C 10.75 11.414062 11.171875 11.214844 11.390625 10.808594 C 11.640625 10.285156 11.625 9.84375 11.996094 9.371094 C 12.316406 8.945312 12.921875 8.292969 12.921875 7.789062 C 12.921875 7.234375 12.097656 6.695312 11.40625 7.609375 C 11.429688 7.75 11.445312 7.890625 11.457031 8.03125 C 11.492188 8.34375 11.492188 8.605469 11.472656 8.832031 C 11.550781 8.777344 11.636719 8.746094 11.726562 8.734375 C 11.910156 8.703125 11.910156 9.042969 11.710938 9.0625 C 11.609375 9.078125 11.492188 9.191406 11.390625 9.402344 C 11.34375 9.546875 11.300781 9.671875 11.253906 9.78125 C 11.304688 9.828125 11.339844 9.925781 11.339844 10.058594 C 11.320312 10.269531 11.203125 10.480469 11.085938 10.515625 C 10.953125 10.546875 10.902344 10.480469 10.882812 10.367188 C 10.734375 10.5625 10.597656 10.726562 10.496094 10.921875 Z M 3.390625 7.609375 C 2.734375 6.726562 2.347656 7.132812 2.027344 7.707031 C 1.777344 8.148438 1.757812 8.261719 1.925781 8.523438 C 2.214844 8.898438 2.9375 9.386719 3.070312 9.761719 C 3.171875 10.121094 3.390625 11.152344 3.863281 11.199219 C 3.964844 11.214844 4.167969 11.199219 4.300781 10.921875 C 4.300781 10.902344 4.296875 10.882812 4.285156 10.875 C 4.273438 10.863281 4.265625 10.851562 4.265625 10.839844 L 4.234375 10.808594 C 4.234375 10.785156 4.226562 10.769531 4.21875 10.757812 C 4.117188 10.628906 4.015625 10.496094 3.898438 10.351562 C 3.878906 10.464844 3.828125 10.5625 3.710938 10.515625 C 3.578125 10.480469 3.476562 10.269531 3.460938 10.058594 C 3.441406 9.925781 3.476562 9.828125 3.542969 9.78125 C 3.53125 9.757812 3.527344 9.742188 3.527344 9.730469 C 3.515625 9.710938 3.511719 9.6875 3.507812 9.664062 C 3.5 9.65625 3.488281 9.636719 3.476562 9.617188 C 3.476562 9.59375 3.46875 9.578125 3.460938 9.566406 C 3.460938 9.546875 3.453125 9.523438 3.441406 9.503906 C 3.324219 9.222656 3.191406 9.078125 3.070312 9.0625 C 2.886719 9.042969 2.871094 8.71875 3.070312 8.734375 C 3.160156 8.746094 3.25 8.785156 3.339844 8.847656 C 3.324219 8.621094 3.324219 8.34375 3.339844 8.03125 C 3.363281 7.890625 3.378906 7.75 3.390625 7.609375 Z M 10.175781 12.652344 C 10.058594 13.386719 9.789062 13.976562 8.710938 14.398438 L 8.644531 14.433594 C 8.410156 14.660156 7.972656 14.792969 7.398438 14.792969 C 6.84375 14.792969 6.40625 14.660156 6.167969 14.433594 C 6.160156 14.421875 6.148438 14.417969 6.136719 14.417969 C 5.144531 14.039062 4.773438 13.503906 4.621094 12.652344 C 4.710938 12.675781 4.792969 12.6875 4.875 12.6875 C 4.992188 13.273438 5.226562 13.746094 6.019531 14.105469 C 6.070312 14.023438 6.203125 14.007812 6.253906 14.121094 C 6.355469 14.351562 6.707031 14.546875 7.398438 14.546875 C 8.089844 14.546875 8.460938 14.351562 8.5625 14.121094 C 8.609375 14.007812 8.746094 14.023438 8.78125 14.105469 C 9.585938 13.730469 9.839844 13.242188 9.925781 12.6875 C 10.015625 12.675781 10.097656 12.664062 10.175781 12.652344 Z M 9.6875 8.667969 C 9.671875 8.867188 9.503906 9.046875 9.300781 9.046875 C 9.097656 9.046875 8.929688 8.867188 8.929688 8.667969 C 8.929688 8.457031 9.097656 8.292969 9.316406 8.292969 C 9.519531 8.292969 9.6875 8.457031 9.6875 8.667969 Z M 5.144531 8.667969 C 5.144531 8.457031 5.3125 8.292969 5.511719 8.292969 C 5.730469 8.292969 5.902344 8.457031 5.902344 8.667969 C 5.902344 8.867188 5.730469 9.046875 5.53125 9.046875 C 5.328125 9.046875 5.160156 8.867188 5.144531 8.667969 Z M 7.230469 11.214844 C 7.285156 11.238281 7.34375 11.25 7.398438 11.25 C 7.464844 11.25 7.527344 11.238281 7.585938 11.214844 C 7.617188 11.207031 7.65625 11.1875 7.703125 11.167969 C 7.804688 11.101562 7.921875 11.054688 8.039062 11.019531 C 8.082031 11 8.125 10.984375 8.171875 10.972656 C 8.273438 10.957031 8.324219 11.019531 8.324219 11.101562 L 8.324219 11.152344 L 8.308594 11.167969 C 8.296875 11.179688 8.292969 11.1875 8.292969 11.199219 C 8.28125 11.210938 8.269531 11.214844 8.257812 11.214844 C 8.257812 11.226562 8.253906 11.234375 8.242188 11.234375 C 8.230469 11.242188 8.21875 11.25 8.207031 11.25 L 8.207031 11.265625 C 8.195312 11.265625 8.183594 11.269531 8.171875 11.28125 C 8.164062 11.28125 8.152344 11.289062 8.140625 11.296875 L 8.003906 11.296875 C 7.941406 11.320312 7.878906 11.347656 7.820312 11.378906 C 7.808594 11.390625 7.796875 11.394531 7.785156 11.394531 C 7.773438 11.40625 7.757812 11.414062 7.734375 11.414062 C 7.722656 11.421875 7.714844 11.429688 7.703125 11.429688 C 7.691406 11.441406 7.679688 11.445312 7.667969 11.445312 C 7.648438 11.457031 7.625 11.460938 7.601562 11.460938 C 7.578125 11.472656 7.5625 11.476562 7.550781 11.476562 C 7.53125 11.488281 7.507812 11.492188 7.484375 11.492188 L 7.332031 11.492188 C 7.308594 11.492188 7.285156 11.488281 7.265625 11.476562 C 7.242188 11.476562 7.226562 11.472656 7.214844 11.460938 C 7.191406 11.460938 7.167969 11.457031 7.144531 11.445312 C 7.136719 11.445312 7.125 11.441406 7.113281 11.429688 C 7.101562 11.429688 7.089844 11.421875 7.078125 11.414062 C 7.054688 11.414062 7.039062 11.40625 7.027344 11.394531 C 7.015625 11.394531 7.007812 11.390625 6.996094 11.378906 C 6.9375 11.347656 6.875 11.320312 6.808594 11.296875 L 6.757812 11.296875 C 6.691406 11.296875 6.640625 11.28125 6.609375 11.265625 L 6.589844 11.25 L 6.574219 11.234375 C 6.5625 11.234375 6.550781 11.226562 6.539062 11.214844 C 6.539062 11.207031 6.535156 11.199219 6.523438 11.199219 C 6.523438 11.1875 6.519531 11.179688 6.507812 11.167969 L 6.488281 11.152344 L 6.488281 11.117188 C 6.480469 11.109375 6.480469 11.101562 6.488281 11.101562 C 6.488281 11.019531 6.539062 10.957031 6.640625 10.972656 C 6.6875 10.984375 6.734375 11 6.777344 11.019531 C 6.894531 11.054688 6.996094 11.101562 7.113281 11.167969 C 7.144531 11.1875 7.1875 11.207031 7.230469 11.214844 Z M 6.050781 12.585938 C 6.0625 12.578125 6.074219 12.570312 6.085938 12.570312 C 6.097656 12.5625 6.109375 12.554688 6.121094 12.554688 L 6.21875 12.554688 L 6.238281 12.570312 L 7.164062 12.523438 C 7.179688 12.523438 7.195312 12.523438 7.214844 12.523438 L 7.230469 12.539062 C 7.265625 12.539062 7.332031 12.554688 7.398438 12.570312 C 7.484375 12.554688 7.550781 12.539062 7.585938 12.539062 L 7.601562 12.523438 C 7.617188 12.523438 7.632812 12.523438 7.652344 12.523438 L 8.578125 12.570312 L 8.578125 12.554688 L 8.695312 12.554688 C 8.707031 12.554688 8.710938 12.5625 8.710938 12.570312 C 8.734375 12.570312 8.75 12.578125 8.761719 12.585938 L 8.863281 12.636719 C 9.015625 12.71875 8.898438 12.929688 8.746094 12.847656 L 8.730469 12.847656 C 8.71875 12.839844 8.707031 12.832031 8.695312 12.832031 C 8.695312 12.820312 8.691406 12.816406 8.679688 12.816406 C 8.667969 12.816406 8.65625 12.8125 8.644531 12.800781 L 7.667969 12.765625 C 7.585938 12.785156 7.484375 12.800781 7.414062 12.816406 L 7.382812 12.816406 C 7.316406 12.800781 7.230469 12.785156 7.144531 12.765625 L 6.167969 12.800781 L 6.152344 12.800781 C 6.152344 12.8125 6.148438 12.816406 6.136719 12.816406 C 6.125 12.816406 6.121094 12.820312 6.121094 12.832031 C 6.109375 12.832031 6.097656 12.839844 6.085938 12.847656 L 6.070312 12.847656 C 5.917969 12.929688 5.800781 12.71875 5.933594 12.636719 C 5.992188 12.613281 6.03125 12.597656 6.050781 12.585938 Z M 6.859375 13.109375 C 6.878906 13.125 6.878906 13.125 6.925781 13.125 L 7.011719 13.125 C 7.023438 13.117188 7.035156 13.109375 7.046875 13.109375 C 7.101562 13.109375 7.15625 13.105469 7.214844 13.09375 L 7.535156 13.09375 C 7.601562 13.105469 7.664062 13.109375 7.71875 13.109375 C 7.785156 13.125 7.855469 13.125 7.921875 13.125 L 7.9375 13.125 L 7.9375 13.109375 C 8.054688 12.945312 8.273438 13.160156 8.105469 13.304688 L 8.089844 13.304688 C 8.066406 13.339844 8.023438 13.359375 7.953125 13.371094 C 7.871094 13.371094 7.785156 13.371094 7.703125 13.355469 C 7.644531 13.355469 7.585938 13.351562 7.515625 13.339844 L 7.230469 13.339844 C 7.175781 13.351562 7.125 13.355469 7.078125 13.355469 C 7.023438 13.367188 6.96875 13.371094 6.910156 13.371094 C 6.828125 13.371094 6.777344 13.355469 6.726562 13.324219 L 6.707031 13.304688 C 6.699219 13.304688 6.691406 13.300781 6.691406 13.289062 C 6.679688 13.289062 6.675781 13.285156 6.675781 13.273438 L 6.65625 13.257812 C 6.558594 13.109375 6.777344 12.980469 6.859375 13.109375 Z M 7.0625 9.160156 C 7.128906 9.859375 6.808594 10.351562 6.507812 10.613281 C 6.421875 10.675781 6.320312 10.5625 6.40625 10.496094 C 6.675781 10.269531 6.976562 9.828125 6.910156 9.175781 C 6.910156 9.078125 7.046875 9.0625 7.0625 9.160156 Z M 6.371094 8.964844 C 6.019531 9.632812 5.144531 9.617188 4.753906 9.027344 C 4.703125 8.945312 4.824219 8.867188 4.875 8.945312 C 5.210938 9.453125 5.949219 9.46875 6.238281 8.898438 C 6.289062 8.800781 6.421875 8.867188 6.371094 8.964844 Z M 7.953125 9.160156 C 7.886719 9.828125 8.191406 10.269531 8.460938 10.496094 C 8.542969 10.5625 8.441406 10.675781 8.359375 10.613281 C 8.074219 10.351562 7.734375 9.859375 7.804688 9.160156 C 7.820312 9.0625 7.972656 9.078125 7.953125 9.160156 Z M 8.5625 8.898438 C 8.863281 9.46875 9.585938 9.453125 9.925781 8.945312 C 9.976562 8.867188 10.109375 8.945312 10.042969 9.027344 C 9.65625 9.617188 8.78125 9.632812 8.425781 8.964844 C 8.375 8.867188 8.511719 8.800781 8.5625 8.898438 Z M 6.609375 7.671875 C 5.730469 7.117188 4.875 6.839844 4.199219 7.917969 C 4.199219 7.933594 4.183594 7.933594 4.167969 7.933594 C 4.148438 7.917969 4.132812 7.902344 4.148438 7.886719 C 4.417969 7.117188 4.90625 6.53125 5.949219 6.777344 C 7.464844 7.152344 6.960938 7.902344 6.609375 7.671875 Z M 8.222656 7.671875 C 7.871094 7.902344 7.367188 7.152344 8.878906 6.777344 C 9.925781 6.53125 10.414062 7.117188 10.683594 7.886719 C 10.699219 7.902344 10.683594 7.917969 10.664062 7.933594 C 10.648438 7.933594 10.632812 7.933594 10.632812 7.917969 C 9.957031 6.839844 9.097656 7.117188 8.222656 7.671875 Z M 10.042969 8.605469 L 10.027344 8.585938 L 10.027344 8.554688 C 9.957031 8.328125 9.773438 8.113281 9.519531 8.03125 C 9.386719 8 9.335938 8 9.183594 8.015625 C 8.914062 8.082031 8.710938 8.308594 8.644531 8.554688 C 8.644531 8.570312 8.628906 8.570312 8.628906 8.585938 C 8.609375 8.652344 8.578125 8.6875 8.511719 8.6875 L 8.441406 8.6875 C 8.273438 8.6875 8.273438 8.457031 8.425781 8.441406 C 8.4375 8.429688 8.441406 8.417969 8.441406 8.40625 C 8.578125 7.949219 8.929688 7.722656 9.335938 7.722656 C 9.738281 7.722656 10.09375 7.949219 10.226562 8.40625 L 10.226562 8.441406 C 10.273438 8.59375 10.25 8.675781 10.160156 8.6875 C 10.074219 8.6875 10.058594 8.652344 10.042969 8.605469 Z M 4.789062 8.605469 C 4.773438 8.652344 4.753906 8.6875 4.671875 8.6875 C 4.582031 8.675781 4.558594 8.59375 4.605469 8.441406 L 4.605469 8.40625 C 4.738281 7.949219 5.09375 7.722656 5.496094 7.722656 C 5.902344 7.722656 6.253906 7.949219 6.390625 8.40625 C 6.390625 8.417969 6.394531 8.429688 6.40625 8.441406 C 6.558594 8.457031 6.539062 8.6875 6.390625 8.6875 L 6.320312 8.6875 C 6.253906 8.6875 6.21875 8.652344 6.203125 8.585938 C 6.1875 8.570312 6.1875 8.570312 6.1875 8.554688 C 6.121094 8.308594 5.917969 8.082031 5.648438 8.015625 C 5.496094 8 5.445312 8 5.3125 8.03125 C 5.058594 8.113281 4.875 8.308594 4.804688 8.554688 C 4.804688 8.578125 4.800781 8.59375 4.789062 8.605469 Z M 12.9375 10.988281 C 12.960938 10.957031 12.988281 10.925781 13.023438 10.90625 C 13.050781 10.886719 13.082031 10.867188 13.105469 10.839844 L 13.191406 10.757812 C 13.222656 10.738281 13.253906 10.710938 13.273438 10.675781 C 13.796875 10.21875 14.300781 9.941406 14.859375 9.84375 C 14.285156 10.007812 13.796875 10.269531 13.324219 10.726562 C 13.222656 10.835938 13.113281 10.945312 13.003906 11.054688 C 12.996094 11.054688 12.984375 11.046875 12.972656 11.035156 L 12.953125 11.019531 L 12.9375 11.003906 Z M 12.972656 11.527344 C 12.769531 11.722656 12.398438 11.886719 12.265625 11.769531 C 12.128906 11.640625 12.265625 11.28125 12.464844 11.070312 L 12.5 11.035156 L 12.46875 11.019531 C 12.199219 10.90625 11.945312 10.613281 12.011719 10.449219 C 12.097656 10.285156 12.484375 10.300781 12.753906 10.433594 C 12.777344 10.433594 12.792969 10.4375 12.804688 10.449219 L 12.804688 10.417969 C 12.835938 10.121094 13.039062 9.796875 13.222656 9.8125 C 13.394531 9.84375 13.492188 10.15625 13.492188 10.433594 L 13.394531 10.496094 C 13.363281 10.527344 13.328125 10.554688 13.292969 10.578125 L 13.207031 10.660156 C 13.171875 10.683594 13.136719 10.710938 13.105469 10.742188 C 13.074219 10.730469 13.039062 10.730469 13.003906 10.742188 C 12.972656 10.753906 12.945312 10.769531 12.921875 10.792969 C 12.898438 10.8125 12.882812 10.839844 12.871094 10.875 C 12.859375 10.90625 12.855469 10.945312 12.855469 10.988281 C 12.871094 11.054688 12.9375 11.117188 13.003906 11.132812 C 13.039062 11.144531 13.070312 11.152344 13.105469 11.152344 C 13.222656 11.117188 13.308594 11.019531 13.292969 10.90625 L 13.273438 10.890625 C 13.320312 10.855469 13.359375 10.820312 13.394531 10.777344 C 13.484375 10.6875 13.582031 10.597656 13.679688 10.515625 C 13.929688 10.515625 14.199219 10.597656 14.21875 10.742188 C 14.25 10.90625 13.929688 11.117188 13.644531 11.183594 L 13.59375 11.183594 L 13.613281 11.214844 C 13.746094 11.460938 13.796875 11.851562 13.628906 11.933594 C 13.460938 12.03125 13.15625 11.789062 13.003906 11.542969 L 13.003906 11.511719 L 12.988281 11.511719 L 12.988281 11.492188 Z M 8.089844 11.835938 C 9.46875 12.425781 10.683594 12.488281 12.113281 11.59375 C 12.113281 11.65625 12.117188 11.710938 12.128906 11.753906 C 10.734375 12.6875 9.351562 12.785156 7.972656 12.195312 L 7.953125 12.195312 C 7.941406 12.195312 7.9375 12.191406 7.9375 12.179688 L 7.902344 12.179688 C 7.902344 12.167969 7.898438 12.164062 7.886719 12.164062 C 7.875 12.164062 7.871094 12.15625 7.871094 12.148438 L 7.835938 12.148438 L 7.820312 12.128906 C 7.808594 12.121094 7.796875 12.113281 7.785156 12.113281 L 7.785156 12.097656 L 7.769531 12.097656 L 7.769531 12.082031 L 7.753906 12.082031 C 7.515625 11.886719 7.683594 11.640625 8.003906 11.804688 C 8.039062 11.820312 8.039062 11.820312 8.089844 11.835938 Z M 8.089844 11.835938 "/>
</g>
</svg>
